<?xml version="1.0" encoding="UTF-8" standalone="no"?>
<svg
   inkscape:version="1.3.2 (091e20ef0f, 2023-11-25, custom)"
   sodipodi:docname="lineedit-test-11.svg"
   id="svg414"
   version="1.0"
   height="212"
   width="220"
   xmlns:inkscape="http://www.inkscape.org/namespaces/inkscape"
   xmlns:sodipodi="http://sodipodi.sourceforge.net/DTD/sodipodi-0.dtd"
   xmlns:xlink="http://www.w3.org/1999/xlink"
   xmlns="http://www.w3.org/2000/svg"
   xmlns:svg="http://www.w3.org/2000/svg"
   xmlns:rdf="http://www.w3.org/1999/02/22-rdf-syntax-ns#"
   xmlns:cc="http://creativecommons.org/ns#"
   xmlns:dc="http://purl.org/dc/elements/1.1/">
  <metadata
     id="metadata418">
    <rdf:RDF>
      <cc:Work
         rdf:about="">
        <dc:format>image/svg+xml</dc:format>
        <dc:type
           rdf:resource="http://purl.org/dc/dcmitype/StillImage" />
      </cc:Work>
    </rdf:RDF>
  </metadata>
  <sodipodi:namedview
     inkscape:document-rotation="0"
     inkscape:snap-nodes="false"
     inkscape:snap-bbox-edge-midpoints="true"
     inkscape:bbox-paths="true"
     inkscape:bbox-nodes="true"
     inkscape:snap-bbox="true"
     inkscape:current-layer="svg414"
     inkscape:window-maximized="1"
     inkscape:window-y="0"
     inkscape:window-x="0"
     inkscape:cy="35.620503"
     inkscape:cx="103.1492"
     inkscape:zoom="5.6568545"
     showgrid="true"
     id="namedview416"
     inkscape:window-height="704"
     inkscape:window-width="1366"
     inkscape:pageshadow="2"
     inkscape:pageopacity="0"
     guidetolerance="10"
     gridtolerance="10"
     objecttolerance="10"
     borderopacity="1"
     bordercolor="#b0b0b0"
     pagecolor="#505050"
     inkscape:showpageshadow="2"
     inkscape:pagecheckerboard="0"
     inkscape:deskcolor="#505050">
    <inkscape:grid
       id="grid1331"
       type="xygrid"
       originx="0"
       originy="0"
       spacingy="1"
       spacingx="1"
       units="px"
       visible="true" />
  </sodipodi:namedview>
  <defs
     id="defs18">
    <linearGradient
       inkscape:collect="always"
       id="linearGradient3">
      <stop
         style="stop-color:#00ccff;stop-opacity:1;"
         offset="0"
         id="stop1" />
      <stop
         style="stop-color:#7844ff;stop-opacity:1;"
         offset="0.89999998"
         id="stop2" />
    </linearGradient>
    <linearGradient
       inkscape:collect="always"
       xlink:href="#linearGradient3"
       id="linearGradient31"
       gradientUnits="userSpaceOnUse"
       gradientTransform="matrix(0,0.80000246,-0.98461538,0,133.00161,-1.7270049e-4)"
       x1="22.5"
       y1="81.251602"
       x2="22.5"
       y2="48.751598" />
    <linearGradient
       inkscape:collect="always"
       xlink:href="#linearGradient3"
       id="linearGradient32"
       gradientUnits="userSpaceOnUse"
       gradientTransform="matrix(0,-1.1211263,0.98461501,0,-42.998999,1078.593)"
       x1="22.499874"
       y1="48.737026"
       x2="22.500002"
       y2="81.249023" />
  </defs>
  <path
     id="base-center"
     class="ColorScheme-Highlight"
     d="M 97.000019,17.000018 V 38.999932 H 119.00001 V 17.000018 Z"
     inkscape:connector-curvature="0"
     style="color:#3daee6;opacity:0.15;fill:#aaaaac;stroke-width:0.458332;fill-opacity:1" />
  <g
     id="base-topright"
     transform="matrix(0,0.8,-0.8,0,159.00128,-7)">
    <path
       d="M 6,17 C 3.5,17 2,18.5 2,21 H 6 Z"
       style="opacity:0.15;fill:#aaaaac;fill-opacity:1;fill-rule:evenodd;stroke-width:0.8"
       id="path1622"
       inkscape:connector-curvature="0"
       transform="matrix(1.25,0,0,1.25,21.249876,22.501601)" />
    <path
       d="m 28.75,41.2516 c -4.125,-5.1e-5 -7.50003,3.37497 -7.5,7.5 h 2.5 c 0,-3.125 1.875,-5 5,-5 z"
       style="color:#000000;text-indent:0;text-transform:none;opacity:0.15;fill:#aaaaac;fill-opacity:1"
       id="path1624"
       inkscape:connector-curvature="0" />
  </g>
  <g
     style="opacity:1"
     id="base-top"
     transform="matrix(0.16793885,0,0,0.99999999,65.068126,-813.85996)">
    <path
       class="ColorScheme-Highlight"
       d="m 190.14,825.86 v 4 h 131 v -4 z"
       id="path13-26-1-3"
       inkscape:connector-curvature="0"
       style="color:#3daee6;opacity:0.15;fill:#aaaaac;fill-opacity:1;stroke-width:1.11804"
       sodipodi:nodetypes="ccccc" />
    <path
       style="color:#3daee6;opacity:0.15;fill:#aaaaac;stroke-width:0.707112;fill-opacity:1"
       inkscape:connector-curvature="0"
       id="path2149-9-6"
       d="M 190.14,823.85997 V 825.86 h 131 v -2.00003 z"
       class="ColorScheme-Highlight" />
  </g>
  <g
     transform="matrix(0,-0.16793856,0.99999999,0,-733.85996,70.931723)"
     id="base-left"
     style="opacity:1">
    <path
       style="color:#3daee6;opacity:0.15;fill:#aaaaac;fill-opacity:1;stroke-width:1.11804"
       inkscape:connector-curvature="0"
       id="path2824-8"
       d="m 190.14,825.86 v 4 h 131 v -4 z"
       class="ColorScheme-Highlight"
       sodipodi:nodetypes="ccccc" />
    <path
       class="ColorScheme-Highlight"
       d="M 190.14,823.85997 V 825.86 h 131 v -2.00003 z"
       id="path2826-2"
       inkscape:connector-curvature="0"
       style="color:#3daee6;opacity:0.15;fill:#aaaaac;stroke-width:0.707112;fill-opacity:1" />
  </g>
  <g
     transform="matrix(0,0.16793853,-0.99999999,0,949.85992,-14.931856)"
     id="base-right"
     style="opacity:1">
    <path
       style="color:#3daee6;opacity:0.15;fill:#aaaaac;fill-opacity:1;stroke-width:1.11804"
       inkscape:connector-curvature="0"
       id="path2812-5"
       d="M 190.14014,825.85993 190.14,829.86 h 131 l 4.6e-4,-4.00007 z"
       class="ColorScheme-Highlight"
       sodipodi:nodetypes="ccccc" />
    <path
       class="ColorScheme-Highlight"
       d="M 190.14,823.85997 V 825.86 h 131 v -2.00003 z"
       id="path2814-6"
       inkscape:connector-curvature="0"
       style="color:#3daee6;opacity:0.15;fill:#aaaaac;stroke-width:0.707112;fill-opacity:1" />
  </g>
  <g
     transform="matrix(0.16793885,0,0,-0.99999999,65.068121,869.85999)"
     id="base-bottom"
     style="opacity:1">
    <path
       style="color:#3daee6;opacity:0.15;fill:#aaaaac;fill-opacity:1;stroke-width:1.11805"
       inkscape:connector-curvature="0"
       id="path2818-7"
       d="m 190.14,825.86 v 4 h 131 v -4 z"
       class="ColorScheme-Highlight"
       sodipodi:nodetypes="ccccc" />
    <path
       class="ColorScheme-Highlight"
       d="M 190.14,823.85997 V 825.86 h 131 v -2.00003 z"
       id="path2820-5"
       inkscape:connector-curvature="0"
       style="color:#3daee6;opacity:0.15;fill:#aaaaac;stroke-width:0.707112;fill-opacity:1" />
  </g>
  <g
     id="base-bottomright"
     transform="matrix(0,-0.8,-0.8,0,159.00128,63)">
    <path
       d="M 6,17 C 3.5,17 2,18.5 2,21 H 6 Z"
       style="opacity:0.15;fill:#aaaaac;fill-opacity:1;fill-rule:evenodd;stroke-width:0.8"
       id="path20"
       inkscape:connector-curvature="0"
       transform="matrix(1.25,0,0,1.25,21.249876,22.501601)" />
    <path
       d="m 28.75,41.2516 c -4.125,-5.1e-5 -7.50003,3.37497 -7.5,7.5 h 2.5 c 0,-3.125 1.875,-5 5,-5 z"
       style="color:#000000;text-indent:0;text-transform:none;opacity:0.15;fill:#aaaaac;fill-opacity:1"
       id="path22"
       inkscape:connector-curvature="0" />
  </g>
  <g
     id="base-bottomleft"
     transform="matrix(0,-0.8,0.8,0,56.99872,63)">
    <path
       d="M 6,17 C 3.5,17 2,18.5 2,21 H 6 Z"
       style="opacity:0.15;fill:#aaaaac;fill-opacity:1;fill-rule:evenodd;stroke-width:0.8"
       id="path23"
       inkscape:connector-curvature="0"
       transform="matrix(1.25,0,0,1.25,21.249876,22.501601)" />
    <path
       d="m 28.75,41.2516 c -4.125,-5.1e-5 -7.50003,3.37497 -7.5,7.5 h 2.5 c 0,-3.125 1.875,-5 5,-5 z"
       style="color:#000000;text-indent:0;text-transform:none;opacity:0.15;fill:#aaaaac;fill-opacity:1"
       id="path28"
       inkscape:connector-curvature="0" />
  </g>
  <g
     id="base-topleft"
     transform="matrix(0,0.8,0.8,0,56.99872,-7)"
     inkscape:label="base-topleft">
    <path
       d="M 6,17 C 3.5,17 2,18.5 2,21 H 6 Z"
       style="opacity:0.15;fill:#aaaaac;fill-opacity:1;fill-rule:evenodd;stroke-width:0.8"
       id="path29"
       inkscape:connector-curvature="0"
       transform="matrix(1.25,0,0,1.25,21.249876,22.501601)" />
    <path
       d="m 28.75,41.2516 c -4.125,-5.1e-5 -7.50003,3.37497 -7.5,7.5 h 2.5 c 0,-3.125 1.875,-5 5,-5 z"
       style="color:#000000;text-indent:0;text-transform:none;opacity:0.15;fill:#aaaaac;fill-opacity:1"
       id="path30"
       inkscape:connector-curvature="0" />
  </g>
  <rect
     y="40"
     x="107.9558"
     height="6"
     width="2"
     id="base-hint-bottom-margin"
     style="fill:#4e9a06;fill-opacity:1;fill-rule:nonzero;stroke:none;stroke-width:1" />
  <rect
     style="fill:#4e9a06;fill-opacity:1;fill-rule:nonzero;stroke:none;stroke-width:1"
     id="base-hint-top-margin"
     width="2"
     height="5.9999986"
     x="107.9558"
     y="10.000001" />
  <rect
     y="90.000031"
     x="-28.99991"
     height="5.9999695"
     width="2"
     id="base-hint-left-margin"
     style="fill:#4e9a06;fill-opacity:1;fill-rule:nonzero;stroke:none;stroke-width:0.999998"
     transform="rotate(-90)" />
  <rect
     transform="rotate(-90)"
     style="fill:#4e9a06;fill-opacity:1;fill-rule:nonzero;stroke:none;stroke-width:0.999997"
     id="base-hint-right-margin"
     width="2"
     height="6"
     x="-29"
     y="120" />
  <g
     style="stroke-width:1.11803"
     transform="matrix(-0.99999985,0,0,0.68749976,171.00002,93.250037)"
     id="focus-right">
    <path
       inkscape:connector-curvature="0"
       id="path1"
       transform="matrix(-1.2500006,0,0,1,503.50021,72.999979)"
       d="m 362,-53 v 32 h 2 2 v -32 h -2 z"
       style="display:none;opacity:0.2;fill:#ffffff;stroke-width:1" />
    <path
       d="m 47.666599,20.000012 v 32 h 3.333389 v -32 z"
       style="display:none;opacity:0;fill:#1a1a1a;fill-opacity:1;fill-rule:evenodd;stroke-width:0.810198"
       id="path2"
       inkscape:connector-curvature="0" />
    <path
       d="m 45.999987,20.000011 v 32 h 1.666695 v -32 z"
       style="color:#000000;text-indent:0;text-transform:none;display:none;fill:#7844ff;fill-opacity:1;stroke-width:0.905826"
       id="path3"
       inkscape:connector-curvature="0" />
    <g
       id="button-toggled-right"
       transform="matrix(0.80000012,0,0,0.9846157,28.000124,-28.001637)">
      <path
         transform="matrix(1.25,0,0,1.015625,21.249876,27.423476)"
         d="M 2,21 V 53 H 6 V 21 Z"
         style="opacity:1;fill:#1a1a1a;fill-opacity:1;fill-rule:evenodd;stroke-width:0.88752"
         id="path1740"
         inkscape:connector-curvature="0" />
      <path
         d="m 21.25,48.7516 v 32.5 h 2.5 v -32.5 z"
         style="color:#000000;text-indent:0;text-transform:none;opacity:1;fill:#7844ff;fill-opacity:1"
         id="path1742"
         inkscape:connector-curvature="0" />
    </g>
  </g>
  <g
     style="stroke-width:1.25"
     transform="matrix(0.99999879,0,0,0.99999879,81.000055,-916.35873)"
     id="focus-bottomright">
    <g
       style="display:none;stroke-width:1.25"
       id="g4"
       transform="matrix(-1,0,0,1,44,993.36)">
      <path
         inkscape:connector-curvature="0"
         id="path4"
         transform="matrix(-1.25,0,0,1.25,457.49998,77.999987)"
         d="m 362,-20 v 2 2 c 2.216,0 4,-1.784 4,-4 h -2 z"
         style="display:none;opacity:0.2;fill:#ffffff;stroke-width:1" />
    </g>
    <path
       d="m 44.000022,1046.36 c 3.4e-5,2.75 -2.249982,5 -5.000005,5 v -1.6667 c 2.083336,0 3.333337,-1.25 3.333337,-3.3333 z"
       style="color:#000000;text-indent:0;text-transform:none;display:none;fill:#7844ff;fill-opacity:1;stroke-width:0.833334"
       id="path6"
       inkscape:connector-curvature="0" />
    <g
       id="g32"
       transform="matrix(0,-0.80000097,-0.80000097,0,78.001319,1069.36)"
       style="stroke-width:1.25">
      <path
         transform="matrix(1.25,0,0,1.25,21.249876,22.501601)"
         d="M 6,17 C 3.5,17 2,18.5 2,21 H 6 Z"
         style="opacity:0;fill:#1a1a1a;fill-opacity:1;fill-rule:evenodd;stroke-width:0.8"
         id="path31"
         inkscape:connector-curvature="0" />
      <path
         d="m 28.75,41.2516 c -4.125,-5.1e-5 -7.50003,3.37497 -7.5,7.5 h 2.5 c 0,-3.125 1.875,-5 5,-5 z"
         style="color:#000000;text-indent:0;text-transform:none;opacity:1;fill:#7844ff;fill-opacity:1"
         id="path32"
         inkscape:connector-curvature="0" />
      <path
         d="m 28.74997,43.751601 c -3.125,0 -5,1.875 -5,5 h 5 z"
         style="opacity:1;fill:#1a1a1a;fill-opacity:1;fill-rule:evenodd;stroke-width:1"
         id="path35"
         inkscape:connector-curvature="0" />
    </g>
  </g>
  <g
     style="stroke-width:1.11803"
     transform="matrix(1.0000021,0,0,0.68749976,44.999911,93.250037)"
     id="focus-left">
    <path
       inkscape:connector-curvature="0"
       id="path7"
       transform="matrix(1.25,0,0,1,-358.99998,72.999979)"
       d="m 324,-53 v 32 h 2 2 v -32 h -2 z"
       style="display:none;opacity:0.2;fill:#ffffff;stroke-width:1" />
    <path
       d="m 47.666635,20.000012 v 32 h 3.333382 v -32 z"
       style="display:none;opacity:0;fill:#1a1a1a;fill-opacity:1;fill-rule:evenodd;stroke-width:0.810197"
       id="path8"
       inkscape:connector-curvature="0" />
    <path
       d="m 46.000027,20.000011 v 32 h 1.666691 v -32 z"
       style="color:#000000;text-indent:0;text-transform:none;display:none;fill:#00ccff;fill-opacity:1;stroke-width:0.905825"
       id="path9"
       inkscape:connector-curvature="0" />
    <g
       id="button-toggled-left"
       transform="matrix(0.79999832,0,0,0.9846157,28.00003,-28.001637)">
      <path
         transform="matrix(1.25,0,0,1.015625,21.249876,27.423476)"
         d="M 2,21 V 53 H 6 V 21 Z"
         style="opacity:1;fill:#1a1a1a;fill-opacity:1;fill-rule:evenodd;stroke-width:0.88752"
         id="path1720"
         inkscape:connector-curvature="0" />
      <path
         d="m 21.25,48.7516 v 32.5 h 2.5 v -32.5 z"
         style="color:#000000;text-indent:0;text-transform:none;opacity:1;fill:#00ccff;fill-opacity:1"
         id="path1722"
         inkscape:connector-curvature="0" />
    </g>
  </g>
  <g
     transform="matrix(0.68749936,0,0,0.71348868,93.562525,-616.56596)"
     id="focus-bottom"
     style="fill:#565656;stroke-width:1.32361">
    <g
       id="g10"
       transform="translate(-48,994.36)"
       style="display:none;stroke-width:1.32361">
      <path
         inkscape:connector-curvature="0"
         id="path10"
         transform="matrix(1,0,0,1.7519682,-275.99999,87.039331)"
         d="m 329,-20 v 2 2 h 32 v -2 -2 z"
         style="display:none;opacity:0.2;fill:#ffffff;stroke-width:0.999989" />
    </g>
    <g
       id="g33">
      <path
         d="m 5.0001062,1051.9661 31.9974428,2e-4 0.0025,-5.6063 H 5.0000232 Z"
         style="opacity:1;fill:#1a1a1a;fill-opacity:1;fill-rule:evenodd;stroke-width:1.0507"
         id="path12"
         inkscape:connector-curvature="0"
         sodipodi:nodetypes="ccccc" />
      <path
         d="M 5.0000192,1054.7693 H 37.000007 l -0.0031,-2.8031 -31.9968478,4e-4 z"
         style="fill:url(#linearGradient32);stroke-width:1.93018;color:#000000;text-indent:0;text-transform:none;fill-opacity:1"
         id="path11"
         inkscape:connector-curvature="0"
         sodipodi:nodetypes="ccccc" />
    </g>
  </g>
  <g
     style="stroke-width:1.25"
     transform="matrix(1.200008,0,0,1.200008,92.399975,-1125.6404)"
     id="focus-bottomleft">
    <g
       style="display:none;stroke-width:1.25"
       id="g15"
       transform="translate(-2,993.36)">
      <path
         inkscape:connector-curvature="0"
         id="path13"
         d="m 0.83334384,52.999987 c 0,2.308339 1.85833756,4.166676 4.16667616,4.166676 V 55.083325 52.999987 H 2.9166819 Z"
         style="display:none;opacity:0.2;fill:#ffffff;stroke-width:1.04167" />
      <path
         d="m 2.9917335,1049.1378 c -1.7278318,0 -2.76949153,-1.0417 -2.77775923,-2.7778 H 2.9917335 Z"
         style="opacity:0;fill:#1a1a1a;fill-opacity:1;fill-rule:evenodd;stroke-width:0.555552"
         id="path14"
         inkscape:connector-curvature="0"
         sodipodi:nodetypes="cccc"
         transform="translate(2,-993.36)" />
      <path
         d="m 3.0000014,1050.5266 c -2.29165143,0 -4.1666556,-1.8749 -4.1666389,-4.1666 h 1.38887957 c 0,1.7361 1.04165983,2.7778 2.77775933,2.7778 z"
         style="color:#000000;text-indent:0;text-transform:none;fill:#00ccff;fill-opacity:1;stroke-width:0.69444"
         id="path15"
         inkscape:connector-curvature="0"
         transform="translate(2,-993.36)" />
    </g>
    <g
       id="g34"
       transform="matrix(0.66666222,0,0,-0.66666222,-16.166479,1078.8609)"
       style="stroke-width:0.750013">
      <path
         transform="matrix(1.25,0,0,1.25,21.249876,22.501601)"
         d="M 6,17 C 3.5,17 2,18.5 2,21 H 6 Z"
         style="opacity:1;fill:#1a1a1a;fill-opacity:1;fill-rule:evenodd;stroke-width:0.8"
         id="path33"
         inkscape:connector-curvature="0" />
      <path
         d="m 28.75,41.2516 c -4.125,-5.1e-5 -7.50003,3.37497 -7.5,7.5 h 2.5 c 0,-3.125 1.875,-5 5,-5 z"
         style="color:#000000;text-indent:0;text-transform:none;opacity:1;fill:#00ccff;fill-opacity:1"
         id="path34"
         inkscape:connector-curvature="0" />
    </g>
  </g>
  <g
     style="stroke-width:1.11803"
     transform="matrix(0.68749936,0,0,0.99999697,93.562525,-905.35688)"
     id="focus-top">
    <g
       style="stroke-width:1.11803"
       id="g18"
       transform="translate(-48,988.36)">
      <path
         inkscape:connector-curvature="0"
         id="path16"
         transform="matrix(1,0,0,1.25,-275.99999,89.499974)"
         d="m 329,-58 v 2 2 h 32 v -2 -2 z"
         style="display:none;opacity:0.2;fill:#ffffff;stroke-width:1" />
      <path
         d="m 85.000035,18.999932 h -32 v 4.000012 h 32 z"
         style="opacity:1;fill:#1a1a1a;fill-opacity:1;fill-rule:evenodd;stroke-width:0.887521"
         id="path17"
         inkscape:connector-curvature="0" />
      <path
         d="m 85.000034,16.999949 h -32 v 2.000006 h 32 z"
         style="color:#000000;text-indent:0;text-transform:none;fill:url(#linearGradient31);fill-opacity:1;stroke-width:0.992275"
         id="path18"
         inkscape:connector-curvature="0" />
    </g>
  </g>
  <g
     style="stroke-width:0.750013"
     transform="matrix(1.6666744,0,0,1.6666744,91.000005,-1578.9412)"
     id="focus-topleft">
    <g
       style="display:none;stroke-width:0.750013"
       id="g24"
       transform="translate(-2,993.36)">
      <path
         inkscape:connector-curvature="0"
         id="path19"
         transform="matrix(0.74999777,0,0,0.74999777,-240.99926,57.499899)"
         d="m 328,-58 c -2.21599,0 -4,1.784015 -4,4 h 2 2 v -2 z"
         style="display:none;opacity:0.2;fill:#ffffff;stroke-width:1.00002" />
      <path
         d="m 4.9999566,15.000026 c -1.2499943,0 -1.9999908,0.749997 -1.9999908,1.999991 h 1.9999908 z"
         style="opacity:0;fill:#1a1a1a;fill-opacity:1;fill-rule:evenodd;stroke-width:0.399998"
         id="path21"
         inkscape:connector-curvature="0" />
      <path
         d="m 5.0000061,14.000031 c -1.6499924,0 -2.9999981,1.349994 -2.9999861,2.999986 h 0.9999953 c 0,-1.249994 0.7499965,-1.999991 1.9999908,-1.999991 z"
         style="color:#000000;text-indent:0;text-transform:none;fill:#00ccff;fill-opacity:1;stroke-width:0.300004"
         id="path24"
         inkscape:connector-curvature="0" />
    </g>
    <g
       id="button-toggled-topleft"
       transform="matrix(0.47999777,0,0,0.47999777,-10.79991,987.55943)">
      <path
         transform="matrix(1.25,0,0,1.25,21.249876,22.501601)"
         d="M 6,17 C 3.5,17 2,18.5 2,21 H 6 Z"
         style="opacity:1;fill:#1a1a1a;fill-opacity:1;fill-rule:evenodd;stroke-width:0.8"
         id="path1755"
         inkscape:connector-curvature="0" />
      <path
         d="m 28.75,41.2516 c -4.125,-5.1e-5 -7.50003,3.37497 -7.5,7.5 h 2.5 c 0,-3.125 1.875,-5 5,-5 z"
         style="color:#000000;text-indent:0;text-transform:none;opacity:1;fill:#00ccff;fill-opacity:1"
         id="path1757"
         inkscape:connector-curvature="0" />
    </g>
  </g>
  <g
     style="stroke-width:1.25"
     transform="matrix(1.0000017,0,0,1.0000017,80.999975,-905.36168)"
     id="focus-topright">
    <g
       style="display:none;stroke-width:1.25"
       id="g27"
       transform="matrix(-1,0,0,1,44,993.36)">
      <path
         inkscape:connector-curvature="0"
         id="path25"
         d="m 362,-58 v 2 2 h 2 2 c 0,-2.215995 -1.784,-4 -4,-4 z"
         style="display:none;opacity:0.2;fill:#ffffff;stroke-width:1"
         transform="matrix(-1.2500006,0,0,1.2500006,457.50022,84.500001)" />
      <path
         d="m 42.333336,1010.3599 c 0,-2.0833 -1.249998,-3.3333 -3.333328,-3.3333 v 3.3333 z"
         style="opacity:0;fill:#1a1a1a;fill-opacity:1;fill-rule:evenodd;stroke-width:0.666666"
         id="path26"
         inkscape:connector-curvature="0"
         transform="matrix(-1,0,0,1,44,-993.36)" />
      <path
         d="m 43.999994,1010.36 c 3.5e-5,-2.75 -2.249976,-5 -4.999991,-5 v 1.6667 c 2.083329,0 3.333327,1.25 3.333327,3.3333 z"
         style="color:#000000;text-indent:0;text-transform:none;fill:#7844ff;fill-opacity:1;stroke-width:0.833332"
         id="path27"
         inkscape:connector-curvature="0"
         transform="matrix(-1,0,0,1,44,-993.36)" />
    </g>
    <g
       id="button-toggled-topright"
       transform="matrix(0,0.79999864,-0.79999864,0,78.001172,988.36)">
      <path
         transform="matrix(1.25,0,0,1.25,21.249876,22.501601)"
         d="M 6,17 C 3.5,17 2,18.5 2,21 H 6 Z"
         style="opacity:1;fill:#1a1a1a;fill-opacity:1;fill-rule:evenodd;stroke-width:0.8"
         id="path1745"
         inkscape:connector-curvature="0" />
      <path
         d="m 28.75,41.2516 c -4.125,-5.1e-5 -7.50003,3.37497 -7.5,7.5 h 2.5 c 0,-3.125 1.875,-5 5,-5 z"
         style="color:#000000;text-indent:0;text-transform:none;opacity:1;fill:#7844ff;fill-opacity:1"
         id="path1747"
         inkscape:connector-curvature="0" />
    </g>
  </g>
  <path
     d="M 119,128.99998 V 107 H 97.000005 v 21.99998 z"
     id="focus-center"
     style="opacity:1;fill:#1a1a1a;fill-opacity:1;stroke-width:0.687499"
     inkscape:connector-curvature="0" />
  <rect
     y="90.000008"
     x="-118"
     height="0.99999237"
     width="1.9999999"
     id="focus-hint-left-margin"
     style="fill:#4e9a06;fill-opacity:1;fill-rule:nonzero;stroke:none;stroke-width:0.499994"
     transform="rotate(-90)" />
  <rect
     style="fill:#4e9a06;fill-opacity:1;fill-rule:nonzero;stroke:none;stroke-width:0.499996"
     id="focus-hint-top-margin"
     width="1.9999999"
     height="1"
     x="107.00002"
     y="100" />
  <rect
     transform="rotate(-90)"
     style="fill:#4e9a06;fill-opacity:1;fill-rule:nonzero;stroke:none;stroke-width:0.499996"
     id="focus-hint-right-margin"
     width="2"
     height="1"
     x="-118"
     y="125" />
  <rect
     y="135"
     x="107.00002"
     height="1.0000916"
     width="1.9999999"
     id="focus-hint-bottom-margin"
     style="fill:#4e9a06;fill-opacity:1;fill-rule:nonzero;stroke:none;stroke-width:0.500023" />
  <rect
     id="focus-hint-stretch-borders"
     x="165.26686"
     y="10.000002"
     width="12"
     height="12"
     fill="#ff00ff"
     fill-rule="evenodd"
     style="stroke-width:4.24262"
     inkscape:label="focus-hint-stretch-borders" />
  <rect
     id="rect1"
     x="145.26686"
     y="10.000002"
     width="12"
     height="12"
     fill="#ff00ff"
     fill-rule="evenodd"
     style="stroke-width:4.24262"
     inkscape:label="hint-stretch-borders" />
  <rect
     id="hint-stretch-center"
     x="145.26686"
     y="27.000002"
     width="12"
     height="12"
     fill="#ff00ff"
     fill-rule="evenodd"
     style="stroke-width:4.24262"
     inkscape:label="hint-stretch-center" />
  <rect
     id="hint-focus-over-base"
     x="165.26686"
     y="27.000002"
     width="12"
     height="12"
     fill="#ff00ff"
     fill-rule="evenodd"
     style="stroke-width:4.24262"
     inkscape:label="hint-focus-over-base" />
</svg>
