<?xml version="1.0" encoding="UTF-8" standalone="no"?>
<svg
   inkscape:version="1.4 (e7c3feb100, 2024-10-09)"
   sodipodi:docname="listitem.svg"
   id="svg414"
   version="1.0"
   height="212"
   width="220"
   xmlns:inkscape="http://www.inkscape.org/namespaces/inkscape"
   xmlns:sodipodi="http://sodipodi.sourceforge.net/DTD/sodipodi-0.dtd"
   xmlns:xlink="http://www.w3.org/1999/xlink"
   xmlns="http://www.w3.org/2000/svg"
   xmlns:svg="http://www.w3.org/2000/svg"
   xmlns:rdf="http://www.w3.org/1999/02/22-rdf-syntax-ns#"
   xmlns:cc="http://creativecommons.org/ns#"
   xmlns:dc="http://purl.org/dc/elements/1.1/">
  <metadata
     id="metadata418">
    <rdf:RDF>
      <cc:Work
         rdf:about="">
        <dc:format>image/svg+xml</dc:format>
        <dc:type
           rdf:resource="http://purl.org/dc/dcmitype/StillImage" />
      </cc:Work>
    </rdf:RDF>
  </metadata>
  <sodipodi:namedview
     inkscape:document-rotation="0"
     inkscape:snap-nodes="false"
     inkscape:snap-bbox-edge-midpoints="true"
     inkscape:bbox-paths="true"
     inkscape:bbox-nodes="true"
     inkscape:snap-bbox="true"
     inkscape:current-layer="svg414"
     inkscape:window-maximized="1"
     inkscape:window-y="0"
     inkscape:window-x="0"
     inkscape:cy="87.681245"
     inkscape:cx="143.80785"
     inkscape:zoom="5.656854"
     showgrid="true"
     id="namedview416"
     inkscape:window-height="704"
     inkscape:window-width="1366"
     inkscape:pageshadow="2"
     inkscape:pageopacity="0"
     guidetolerance="10"
     gridtolerance="10"
     objecttolerance="10"
     borderopacity="1"
     bordercolor="#666666"
     pagecolor="#602929"
     inkscape:showpageshadow="2"
     inkscape:pagecheckerboard="0"
     inkscape:deskcolor="#d1d1d1">
    <inkscape:grid
       id="grid1331"
       type="xygrid"
       originx="0"
       originy="0"
       spacingy="1"
       spacingx="1"
       units="px"
       visible="true" />
  </sodipodi:namedview>
  <defs
     id="defs18">
    <linearGradient
       inkscape:collect="always"
       id="linearGradient3">
      <stop
         style="stop-color:#00ccff;stop-opacity:1;"
         offset="0"
         id="stop1" />
      <stop
         style="stop-color:#7844ff;stop-opacity:1;"
         offset="0.89999998"
         id="stop2" />
    </linearGradient>
    <style
       type="text/css"
       id="current-color-scheme">.ColorScheme-Text {
        color:#31363b;
        stop-color:#31363b;
      }
      .ColorScheme-Background {
        color:#eff0f1;
        stop-color:#eff0f1;
      }
      .ColorScheme-Highlight {
        color:#3daee9;
        stop-color:#3daee9;
      }
      .ColorScheme-ViewText {
        color:#31363b;
        stop-color:#31363b;
      }
      .ColorScheme-ViewBackground {
        color:#fcfcfc;
        stop-color:#fcfcfc;
      }
      .ColorScheme-ViewHover {
        color:#93cee9;
        stop-color:#93cee9;
      }
      .ColorScheme-ViewFocus{
        color:#3daee9;
        stop-color:#3daee9;
      }
      .ColorScheme-ButtonText {
        color:#31363b;
        stop-color:#31363b;
      }
      .ColorScheme-ButtonBackground {
        color:#eff0f1;
        stop-color:#eff0f1;
      }
      .ColorScheme-ButtonHover {
        color:#93cee9;
        stop-color:#93cee9;
      }
      .ColorScheme-ButtonFocus{
        color:#3daee9;
        stop-color:#3daee9;
      }</style>
    <linearGradient
       inkscape:collect="always"
       xlink:href="#linearGradient3"
       id="linearGradient31"
       gradientUnits="userSpaceOnUse"
       gradientTransform="matrix(0,0.66680202,-0.98461538,0,133.00161,2.830348)"
       x1="22.5"
       y1="81.251602"
       x2="22.5"
       y2="48.751598" />
    <linearGradient
       inkscape:collect="always"
       xlink:href="#linearGradient3"
       id="linearGradient32"
       gradientUnits="userSpaceOnUse"
       gradientTransform="matrix(0,-0.93437592,0.98461501,0,-42.998999,1073.2231)"
       x1="22.499874"
       y1="48.737026"
       x2="22.500002"
       y2="81.249023" />
  </defs>
  <path
     id="hover-center"
     class="ColorScheme-Highlight"
     d="m 97.00003,62.000051 v 21.999945 h 21.99999 V 62.000051 Z"
     inkscape:connector-curvature="0"
     style="color:#3daee6;opacity:0.2;fill:#aaaaac;fill-opacity:1;stroke-width:0.458333" />
  <g
     style="opacity:1"
     id="hover-topleft"
     transform="translate(-94.13998,-768.85999)">
    <path
       inkscape:connector-curvature="0"
       id="path5201"
       d="m 190.14,824.86 c -2.77,0 -5,2.23 -5,5 h 5 z"
       style="color:#3daee6;display:none;opacity:0.2;fill:#aaaaac;fill-opacity:1;stroke-width:1.25" />
    <path
       id="path2151"
       transform="translate(81.139996,758.86)"
       d="m 109,65 c -3.324,0 -6,2.676 -6,6 h 2 c 0,-2.216 1.784,-4 4,-4 z"
       style="color:#3daee6;display:inline;opacity:1;fill:none;stroke-width:1.5" />
    <path
       id="path10-91"
       transform="translate(81.139996,758.86)"
       d="m 109,66 c -2.77,0 -5,2.23 -5,5 h 2 c 0,-1.662 1.338,-3 3,-3 z"
       style="color:#3daee6;display:none;opacity:0;fill:#8ab4f8;fill-opacity:0;stroke-width:1.25" />
    <path
       d="m 95.99994,57.666676 c -2.08333,0 -3.33333,1.250001 -3.33333,3.333334 h 3.33333 z"
       style="opacity:0.2;fill:#aaaaac;fill-opacity:1;fill-rule:evenodd;stroke-width:0.666666"
       id="path1755-7"
       inkscape:connector-curvature="0"
       transform="translate(94.13998,768.85999)" />
    <path
       d="m 96.00002,56.00001 c -2.75,0 -5.00002,2.250001 -5,5 h 1.66667 c 0,-2.083333 1.25,-3.333334 3.33333,-3.333334 z"
       style="color:#000000;text-indent:0;text-transform:none;fill:#aaaaac;fill-opacity:1;stroke-width:0.500009;opacity:0.2"
       id="path1757-5"
       inkscape:connector-curvature="0"
       transform="translate(94.13998,768.85999)" />
  </g>
  <g
     style="opacity:1"
     id="hover-top"
     transform="matrix(0.16793882,0,0,0.99999999,65.068141,-768.85995)">
    <path
       class="ColorScheme-Highlight"
       d="M 190.14,826.52694 V 829.86 h 131 v -3.33306 z"
       id="path13-26"
       inkscape:connector-curvature="0"
       style="color:#3daee6;opacity:0.2;fill:#aaaaac;fill-opacity:1;stroke-width:0.912836" />
    <path
       style="color:#3daee6;opacity:1;fill:none;stroke-width:0.707112"
       inkscape:connector-curvature="0"
       id="path2149"
       d="M 190.14,823.85997 V 825.86 h 131 v -2.00003 z"
       class="ColorScheme-Highlight" />
    <path
       class="ColorScheme-Highlight"
       d="m 190.14,824.85994 v 1.667 h 131 v -1.667 z"
       id="path4403"
       inkscape:connector-curvature="0"
       style="color:#3daee6;opacity:0.2;fill:#aaaaac;fill-opacity:1;stroke-width:0.645562" />
  </g>
  <use
     height="100%"
     width="100%"
     transform="matrix(-1,0,0,1,216,3.8599829e-8)"
     id="hover-topright"
     xlink:href="#hover-topleft"
     y="0"
     x="0" />
  <g
     id="hover-left"
     transform="matrix(0,-0.16793888,0.99999999,0,-733.85997,115.93189)">
    <path
       class="ColorScheme-Highlight"
       d="M 190.14,826.52694 V 829.86 h 131 v -3.33306 z"
       id="path1104"
       inkscape:connector-curvature="0"
       style="color:#3daee6;opacity:0.2;fill:#aaaaac;fill-opacity:1;stroke-width:0.912836" />
    <path
       style="color:#3daee6;opacity:1;fill:none;stroke-width:0.707112"
       inkscape:connector-curvature="0"
       id="path1106"
       d="M 190.14,823.85997 V 825.86 h 131 v -2.00003 z"
       class="ColorScheme-Highlight" />
    <path
       class="ColorScheme-Highlight"
       d="m 190.14,824.85994 v 1.667 h 131 v -1.667 z"
       id="path1108"
       inkscape:connector-curvature="0"
       style="color:#3daee6;opacity:0.2;fill:#aaaaac;fill-opacity:1;stroke-width:0.645562" />
  </g>
  <g
     id="hover-right"
     transform="matrix(0,0.16793887,-0.99999999,0,949.85998,30.068109)">
    <path
       class="ColorScheme-Highlight"
       d="M 190.14,826.52699 V 829.86 h 131 v -3.33301 z"
       id="path1096"
       inkscape:connector-curvature="0"
       style="color:#3daee6;opacity:0.2;fill:#aaaaac;fill-opacity:1;stroke-width:0.912829" />
    <path
       style="color:#3daee6;opacity:1;fill:none;stroke-width:0.707112"
       inkscape:connector-curvature="0"
       id="path1098"
       d="M 190.14,823.85997 V 825.86 h 131 v -2.00003 z"
       class="ColorScheme-Highlight" />
    <path
       class="ColorScheme-Highlight"
       d="m 190.14,824.85999 v 1.667 h 131 v -1.667 z"
       id="path1100"
       inkscape:connector-curvature="0"
       style="color:#3daee6;opacity:0.2;fill:#aaaaac;fill-opacity:1;stroke-width:0.645562" />
  </g>
  <g
     id="hover-bottom"
     transform="matrix(0.16793882,0,0,-0.99999999,65.068129,914.85999)">
    <path
       class="ColorScheme-Highlight"
       d="m 190.14,826.527 v 3.333 h 131 v -3.333 z"
       id="path1112"
       inkscape:connector-curvature="0"
       style="color:#3daee6;opacity:0.2;fill:#aaaaac;fill-opacity:1;stroke-width:0.912827" />
    <path
       style="color:#3daee6;opacity:1;fill:none;stroke-width:0.707112"
       inkscape:connector-curvature="0"
       id="path1114"
       d="M 190.14,823.85997 V 825.86 h 131 v -2.00003 z"
       class="ColorScheme-Highlight" />
    <path
       class="ColorScheme-Highlight"
       d="m 190.14,824.86 v 1.667 h 131 v -1.667 z"
       id="path1116"
       inkscape:connector-curvature="0"
       style="color:#3daee6;opacity:0.2;fill:#aaaaac;fill-opacity:1;stroke-width:0.645562" />
  </g>
  <use
     height="100%"
     width="100%"
     transform="matrix(1,0,0,-1,3.0000035e-7,146.00001)"
     id="hover-bottomleft"
     xlink:href="#hover-topleft"
     y="0"
     x="0" />
  <use
     height="100%"
     width="100%"
     transform="rotate(180,108,73.000002)"
     id="hover-bottomright"
     xlink:href="#hover-topleft"
     y="0"
     x="0" />
  <rect
     id="hover-hint-top-margin"
     x="108.00002"
     y="56.000008"
     width="2"
     height="0.1"
     style="fill:#9a06ff;stroke-width:0.316228" />
  <rect
     id="hover-hint-right-margin"
     transform="rotate(-90)"
     x="-74.000008"
     y="124.90001"
     width="2"
     height="0.1"
     style="fill:#9a06ff;stroke-width:0.223607" />
  <rect
     id="hover-hint-left-margin"
     transform="rotate(-90)"
     x="-73.000008"
     y="91.000015"
     width="2"
     height="0.1"
     style="fill:#9a06ff;stroke-width:0.223607" />
  <rect
     height="0.1"
     width="2"
     y="89.900009"
     x="108.00002"
     id="hover-hint-bottom-margin"
     style="fill:#9a06ff;stroke-width:0.182574" />
  <path
     id="normal-center"
     class="ColorScheme-Highlight"
     d="M 97.000019,17.000018 V 38.999932 H 119.00001 V 17.000018 Z"
     inkscape:connector-curvature="0"
     style="color:#3daee6;opacity:0;fill:#aaaaac;stroke-width:0.458332;fill-opacity:1" />
  <g
     style="opacity:1"
     id="normal-topleft"
     transform="translate(-94.13998,-813.85999)">
    <path
       id="path2151-9-5"
       transform="translate(81.139996,758.86)"
       d="m 109,65 c -3.324,0 -6,2.676 -6,6 h 2 c 0,-2.216 1.784,-4 4,-4 z"
       style="color:#3daee6;opacity:1;fill:none;stroke-width:1.5"
       inkscape:connector-curvature="0" />
    <path
       inkscape:connector-curvature="0"
       id="path10-91-9-7"
       d="m 190.14,824.86 c -2.77,0 -5,2.23 -5,5 h 5 z"
       style="color:#3daee6;opacity:0;fill:#aaaaac;stroke-width:1.25;fill-opacity:1" />
  </g>
  <g
     style="opacity:1"
     id="normal-top"
     transform="matrix(0.16793885,0,0,0.99999999,65.068126,-813.85996)">
    <path
       class="ColorScheme-Highlight"
       d="M 190.14,824.85998 V 829.86 h 131 v -5.00002 z"
       id="path13-26-1-3"
       inkscape:connector-curvature="0"
       style="color:#3daee6;opacity:0;fill:#aaaaac;stroke-width:1.11804;fill-opacity:1" />
    <path
       style="color:#3daee6;opacity:1;fill:none;stroke-width:0.707112"
       inkscape:connector-curvature="0"
       id="path2149-9-6"
       d="M 190.14,823.85997 V 825.86 h 131 v -2.00003 z"
       class="ColorScheme-Highlight" />
  </g>
  <g
     transform="matrix(-0.99999999,0,0,0.99999999,310.14001,-813.85999)"
     id="normal-topright"
     style="opacity:1">
    <path
       inkscape:connector-curvature="0"
       style="color:#3daee6;opacity:1;fill:none;stroke-width:1.5"
       d="m 109,65 c -3.324,0 -6,2.676 -6,6 h 2 c 0,-2.216 1.784,-4 4,-4 z"
       transform="translate(81.139996,758.86)"
       id="path2794-2" />
    <path
       style="color:#3daee6;opacity:0;fill:#aaaaac;stroke-width:1.24999;fill-opacity:1"
       d="m 190.14,824.86005 c -2.76998,0 -4.99996,2.22998 -4.99996,4.99995 H 190.14 Z"
       id="path2796-5"
       inkscape:connector-curvature="0" />
  </g>
  <g
     transform="matrix(0,-0.16793856,0.99999999,0,-733.85996,70.931723)"
     id="normal-left"
     style="opacity:1">
    <path
       style="color:#3daee6;opacity:0;fill:#aaaaac;stroke-width:1.11804;fill-opacity:1"
       inkscape:connector-curvature="0"
       id="path2824-8"
       d="M 190.14,824.85999 V 829.86 h 131 v -5.00001 z"
       class="ColorScheme-Highlight" />
    <path
       class="ColorScheme-Highlight"
       d="M 190.14,823.85997 V 825.86 h 131 v -2.00003 z"
       id="path2826-2"
       inkscape:connector-curvature="0"
       style="color:#3daee6;opacity:1;fill:none;stroke-width:0.707112" />
  </g>
  <g
     transform="matrix(0,0.16793853,-0.99999999,0,949.85992,-14.931856)"
     id="normal-right"
     style="opacity:1">
    <path
       style="color:#3daee6;opacity:0;fill:#aaaaac;stroke-width:1.11804;fill-opacity:1"
       inkscape:connector-curvature="0"
       id="path2812-5"
       d="M 190.14,824.85996 V 829.86 h 131 v -5.00004 z"
       class="ColorScheme-Highlight" />
    <path
       class="ColorScheme-Highlight"
       d="M 190.14,823.85997 V 825.86 h 131 v -2.00003 z"
       id="path2814-6"
       inkscape:connector-curvature="0"
       style="color:#3daee6;opacity:1;fill:none;stroke-width:0.707112" />
  </g>
  <g
     transform="matrix(0.16793885,0,0,-0.99999999,65.068121,869.85999)"
     id="normal-bottom"
     style="opacity:1">
    <path
       style="color:#3daee6;opacity:0;fill:#aaaaac;stroke-width:1.11805;fill-opacity:1"
       inkscape:connector-curvature="0"
       id="path2818-7"
       d="m 190.14,824.8599 v 5.0001 h 131 v -5.0001 z"
       class="ColorScheme-Highlight" />
    <path
       class="ColorScheme-Highlight"
       d="M 190.14,823.85997 V 825.86 h 131 v -2.00003 z"
       id="path2820-5"
       inkscape:connector-curvature="0"
       style="color:#3daee6;opacity:1;fill:none;stroke-width:0.707112" />
  </g>
  <g
     transform="matrix(0.99999999,0,0,-0.99999999,-94.14,869.85999)"
     id="normal-bottomleft"
     style="opacity:1">
    <path
       inkscape:connector-curvature="0"
       style="color:#3daee6;opacity:1;fill:none;stroke-width:1.5"
       d="m 109,65 c -3.324,0 -6,2.676 -6,6 h 2 c 0,-2.216 1.784,-4 4,-4 z"
       transform="translate(81.139996,758.86)"
       id="path2806-9" />
    <path
       style="color:#3daee6;opacity:0;fill:#aaaaac;stroke-width:1.25;fill-opacity:1"
       d="m 190.14,824.86002 c -2.76999,0 -4.99998,2.22999 -4.99998,4.99998 H 190.14 Z"
       id="path2808-3"
       inkscape:connector-curvature="0" />
  </g>
  <g
     transform="rotate(180,155.06998,434.93002)"
     id="normal-bottomright"
     style="opacity:1">
    <path
       inkscape:connector-curvature="0"
       style="color:#3daee6;opacity:1;fill:none;stroke-width:1.5"
       d="m 109,65 c -3.324,0 -6,2.676 -6,6 h 2 c 0,-2.216 1.784,-4 4,-4 z"
       transform="translate(81.139996,758.86)"
       id="path2800-1" />
    <path
       style="color:#3daee6;opacity:0;fill:#aaaaac;stroke-width:1.25002;fill-opacity:1"
       d="m 190.14,824.85994 c -2.77004,0 -5.00006,2.23003 -5.00006,5.00006 H 190.14 Z"
       id="path2802-8"
       inkscape:connector-curvature="0" />
  </g>
  <path
     id="pressed-center"
     class="ColorScheme-Highlight"
     d="m 97.000014,152.99999 v 21.99992 h 21.999996 v -21.99992 z"
     inkscape:connector-curvature="0"
     style="color:#3daee6;opacity:0.3;fill:#aaaaac;stroke-width:0.458332;fill-opacity:1" />
  <g
     style="opacity:1"
     id="pressed-topleft"
     transform="translate(-94.13998,-677.85999)">
    <path
       id="path2151-9-5-9"
       transform="translate(81.139996,758.86)"
       d="m 109,65 c -3.324,0 -6,2.676 -6,6 h 2 c 0,-2.216 1.784,-4 4,-4 z"
       style="color:#3daee6;opacity:1;fill:none;stroke-width:1.5"
       inkscape:connector-curvature="0" />
    <path
       inkscape:connector-curvature="0"
       id="path10-91-9-7-7"
       d="m 190.14,824.86 c -2.77,0 -5,2.23 -5,5 h 5 z"
       style="color:#3daee6;display:none;opacity:1;fill:#4285f4;stroke-width:1.25" />
    <path
       d="m 190.13992,826.52667 c -2.08333,0 -3.33333,1.25 -3.33333,3.33333 h 3.33333 z"
       style="opacity:0.3;fill:#aaaaac;fill-opacity:1;fill-rule:evenodd;stroke-width:0.666666"
       id="path1755-7-3"
       inkscape:connector-curvature="0" />
    <path
       d="m 190.14,824.86 c -2.75,0 -5.00002,2.25 -5,5 h 1.66667 c 0,-2.08333 1.25,-3.33333 3.33333,-3.33333 z"
       style="color:#000000;text-indent:0;text-transform:none;opacity:0.3;fill:#aaaaac;fill-opacity:1;stroke-width:0.500009"
       id="path1757-5-5"
       inkscape:connector-curvature="0" />
  </g>
  <g
     style="opacity:1"
     id="pressed-top"
     transform="matrix(0.16793891,0,0,0.99999999,65.068107,-677.85996)">
    <path
       class="ColorScheme-Highlight"
       d="M 190.14,824.85998 V 829.86 h 131 v -5.00002 z"
       id="path13-26-1-3-6"
       inkscape:connector-curvature="0"
       style="color:#3daee6;display:none;opacity:1;fill:#4285f4;stroke-width:1.11804" />
    <path
       class="ColorScheme-Highlight"
       d="m 190.13999,826.52665 v 3.33306 h 131.00002 v -3.33306 z"
       id="path13-26-0"
       inkscape:connector-curvature="0"
       style="color:#3daee6;opacity:0.3;fill:#aaaaac;fill-opacity:1;stroke-width:0.912835;stop-color:#3daee9" />
    <path
       class="ColorScheme-Highlight"
       d="m 190.13999,824.85965 v 1.667 h 131.00002 v -1.667 z"
       id="path4403-9"
       inkscape:connector-curvature="0"
       style="color:#3daee6;opacity:0.3;fill:#aaaaac;fill-opacity:1;stroke-width:0.645561;stop-color:#3daee9" />
    <path
       style="color:#3daee6;opacity:1;fill:none;stroke-width:0.707112"
       inkscape:connector-curvature="0"
       id="path2149-9-6-2"
       d="M 190.14,823.85997 V 825.86 h 131 v -2.00003 z"
       class="ColorScheme-Highlight" />
  </g>
  <g
     transform="matrix(-0.99999999,0,0,0.99999999,310.14011,-677.85999)"
     id="pressed-topright"
     style="opacity:1">
    <path
       inkscape:connector-curvature="0"
       style="color:#3daee6;opacity:1;fill:none;stroke-width:1.5"
       d="m 109,65 c -3.324,0 -6,2.676 -6,6 h 2 c 0,-2.216 1.784,-4 4,-4 z"
       transform="translate(81.139996,758.86)"
       id="path2794-2-7" />
    <path
       style="color:#3daee6;display:none;opacity:1;fill:#4285f4;stroke-width:1.25"
       d="m 190.14,824.86001 c -2.77,0 -5,2.23 -5,4.99999 h 5 z"
       id="path2796-5-7"
       inkscape:connector-curvature="0" />
    <path
       d="m 190.13992,826.52668 c -2.08333,0 -3.33333,1.25 -3.33333,3.33333 h 3.33333 z"
       style="opacity:0.3;fill:#aaaaac;fill-opacity:1;fill-rule:evenodd;stroke-width:0.666666"
       id="path1755-7-3-6"
       inkscape:connector-curvature="0" />
    <path
       d="m 190.14,824.86 c -2.75,0 -5.00002,2.25 -5,5 h 1.66667 c 0,-2.08333 1.25,-3.33333 3.33333,-3.33333 z"
       style="color:#000000;text-indent:0;text-transform:none;opacity:0.3;fill:#aaaaac;fill-opacity:1;stroke-width:0.500009"
       id="path1757-5-5-2"
       inkscape:connector-curvature="0" />
  </g>
  <g
     transform="matrix(0,-0.16793861,0.99999999,0,-733.85995,206.93172)"
     id="pressed-left"
     style="opacity:1">
    <path
       style="color:#3daee6;display:none;opacity:1;fill:#4285f4;stroke-width:1.11804"
       inkscape:connector-curvature="0"
       id="path2824-8-5"
       d="M 190.14,824.85998 V 829.86 h 131 v -5.00002 z"
       class="ColorScheme-Highlight" />
    <path
       class="ColorScheme-Highlight"
       d="m 190.13924,826.52693 v 3.33306 h 131.00025 v -3.33306 z"
       id="path13-26-61"
       inkscape:connector-curvature="0"
       style="color:#3daee6;opacity:0.3;fill:#aaaaac;fill-opacity:1;stroke-width:0.912836;stop-color:#3daee9" />
    <path
       class="ColorScheme-Highlight"
       d="m 190.13924,824.85993 v 1.667 h 131.00025 v -1.667 z"
       id="path4403-8"
       inkscape:connector-curvature="0"
       style="color:#3daee6;opacity:0.3;fill:#aaaaac;fill-opacity:1;stroke-width:0.645561;stop-color:#3daee9" />
    <path
       class="ColorScheme-Highlight"
       d="M 190.14,823.85997 V 825.86 h 131 v -2.00003 z"
       id="path2826-2-7"
       inkscape:connector-curvature="0"
       style="color:#3daee6;opacity:1;fill:none;stroke-width:0.707112" />
  </g>
  <g
     transform="matrix(0,0.16793858,-0.99999999,0,949.85998,121.06811)"
     id="pressed-right"
     style="opacity:1">
    <path
       style="color:#3daee6;display:none;opacity:1;fill:#4285f4;stroke-width:1.11804"
       inkscape:connector-curvature="0"
       id="path2812-5-0"
       d="M 190.14,824.85992 V 829.86 h 131 v -5.00008 z"
       class="ColorScheme-Highlight" />
    <path
       class="ColorScheme-Highlight"
       d="m 190.14029,826.52647 v 3.33306 h 131.00028 v -3.33306 z"
       id="path13-26-6"
       inkscape:connector-curvature="0"
       style="color:#3daee6;opacity:0.3;fill:#aaaaac;fill-opacity:1;stroke-width:0.912836;stop-color:#3daee9" />
    <path
       class="ColorScheme-Highlight"
       d="m 190.14029,824.85947 v 1.667 h 131.00028 v -1.667 z"
       id="path4403-2"
       inkscape:connector-curvature="0"
       style="color:#3daee6;opacity:0.3;fill:#aaaaac;fill-opacity:1;stroke-width:0.645562;stop-color:#3daee9" />
    <path
       class="ColorScheme-Highlight"
       d="M 190.14,823.85997 V 825.86 h 131 v -2.00003 z"
       id="path2814-6-9"
       inkscape:connector-curvature="0"
       style="color:#3daee6;opacity:1;fill:none;stroke-width:0.707112" />
  </g>
  <g
     transform="matrix(0.16793891,0,0,-0.99999999,65.068107,1005.86)"
     id="pressed-bottom"
     style="opacity:1">
    <path
       style="color:#3daee6;display:none;opacity:1;fill:#4285f4;stroke-width:1.11804"
       inkscape:connector-curvature="0"
       id="path2818-7-0"
       d="M 190.14,824.85991 V 829.86 h 131 v -5.00009 z"
       class="ColorScheme-Highlight" />
    <path
       class="ColorScheme-Highlight"
       d="m 190.08291,826.52691 v 3.33306 h 131.00002 v -3.33306 z"
       id="path13-26-36"
       inkscape:connector-curvature="0"
       style="color:#3daee6;opacity:0.3;fill:#aaaaac;fill-opacity:1;stroke-width:0.912835;stop-color:#3daee9" />
    <path
       class="ColorScheme-Highlight"
       d="m 190.08291,824.85991 v 1.667 h 131.00002 v -1.667 z"
       id="path4403-0"
       inkscape:connector-curvature="0"
       style="color:#3daee6;opacity:0.3;fill:#aaaaac;fill-opacity:1;stroke-width:0.645561;stop-color:#3daee9" />
    <path
       class="ColorScheme-Highlight"
       d="M 190.14,823.85997 V 825.86 h 131 v -2.00003 z"
       id="path2820-5-9"
       inkscape:connector-curvature="0"
       style="color:#3daee6;opacity:1;fill:none;stroke-width:0.707112" />
  </g>
  <g
     transform="matrix(0.99999999,0,0,-0.99999999,-94.14,1005.86)"
     id="pressed-bottomleft"
     style="opacity:1">
    <path
       inkscape:connector-curvature="0"
       style="color:#3daee6;display:inline;opacity:1;fill:none;stroke-width:1.5"
       d="m 109,65 c -3.324,0 -6,2.676 -6,6 h 2 c 0,-2.216 1.784,-4 4,-4 z"
       transform="translate(81.139996,758.86)"
       id="path2806-9-9" />
    <path
       style="color:#3daee6;display:none;opacity:1;fill:#4285f4;stroke-width:1.25001"
       d="m 190.14,824.85991 c -2.76999,0 -4.99998,2.23004 -4.99998,5.00009 H 190.14 Z"
       id="path2808-3-3"
       inkscape:connector-curvature="0"
       sodipodi:insensitive="true" />
    <path
       d="m 190.13993,826.52658 c -2.08333,0 -3.33333,1.25 -3.33333,3.33333 h 3.33333 z"
       style="opacity:0.3;fill:#aaaaac;fill-opacity:1;fill-rule:evenodd;stroke-width:0.666666"
       id="path1755-7-3-2"
       inkscape:connector-curvature="0" />
    <path
       d="m 190.14001,824.85991 c -2.75,0 -5.00002,2.25 -5,5 h 1.66667 c 0,-2.08333 1.25,-3.33333 3.33333,-3.33333 z"
       style="color:#000000;text-indent:0;text-transform:none;opacity:0.3;fill:#aaaaac;fill-opacity:1;stroke-width:0.500009"
       id="path1757-5-5-7"
       inkscape:connector-curvature="0" />
  </g>
  <g
     transform="rotate(180,155.07002,502.93)"
     id="pressed-bottomright"
     style="opacity:1">
    <path
       inkscape:connector-curvature="0"
       style="color:#3daee6;opacity:1;fill:none;stroke-width:1.5"
       d="m 109,65 c -3.324,0 -6,2.676 -6,6 h 2 c 0,-2.216 1.784,-4 4,-4 z"
       transform="translate(81.139996,758.86)"
       id="path2800-1-0" />
    <path
       style="color:#3daee6;display:none;opacity:1;fill:#4285f4;stroke-width:1.25002"
       d="m 190.14,824.8599 c -2.77003,0 -5.00004,2.23004 -5.00004,5.0001 H 190.14 Z"
       id="path2802-8-6"
       inkscape:connector-curvature="0" />
    <path
       d="m 190.1399,826.52657 c -2.08333,0 -3.33333,1.25 -3.33333,3.33333 h 3.33333 z"
       style="opacity:0.3;fill:#aaaaac;fill-opacity:1;fill-rule:evenodd;stroke-width:0.666666"
       id="path1755-7-3-9"
       inkscape:connector-curvature="0" />
    <path
       d="m 190.13998,824.8599 c -2.75,0 -5.00002,2.25 -5,5 h 1.66667 c 0,-2.08333 1.25,-3.33333 3.33333,-3.33333 z"
       style="color:#000000;text-indent:0;text-transform:none;opacity:0.3;fill:#aaaaac;fill-opacity:1;stroke-width:0.500009"
       id="path1757-5-5-1"
       inkscape:connector-curvature="0" />
  </g>
  <rect
     y="40"
     x="106.99999"
     height="6.0001016"
     width="2"
     id="normal-hint-bottom-margin"
     style="fill:#4e9a06;fill-opacity:1;fill-rule:nonzero;stroke:none;stroke-width:1.00001" />
  <rect
     style="fill:#4e9a06;fill-opacity:1;fill-rule:nonzero;stroke:none;stroke-width:1"
     id="normal-hint-top-margin"
     width="2"
     height="6"
     x="106.99999"
     y="10.000007" />
  <rect
     y="90.000038"
     x="-29"
     height="5.9999771"
     width="2"
     id="normal-hint-left-margin"
     style="fill:#4e9a06;fill-opacity:1;fill-rule:nonzero;stroke:none;stroke-width:0.999998"
     transform="rotate(-90)" />
  <rect
     transform="rotate(-90)"
     style="fill:#4e9a06;fill-opacity:1;fill-rule:nonzero;stroke:none;stroke-width:1"
     id="normal-hint-right-margin"
     width="2"
     height="6.0000415"
     x="-29.000072"
     y="119.99993" />
  <path
     id="mask-normal-center"
     d="m 26.999957,18.000006 h 22 v 22 h -22 z"
     fill-rule="evenodd" />
  <path
     id="mask-normal-bottomright"
     d="m 48.999957,40.000006 v 6 c 3.324,0 6,-2.676 6,-6 z"
     fill-rule="evenodd"
     style="stroke-width:3" />
  <path
     id="mask-normal-bottom"
     d="m 26.999957,40.000006 v 6 h 22 v -6 z"
     fill-rule="evenodd"
     style="stroke-width:1.73205" />
  <path
     id="mask-normal-bottomleft"
     d="m 20.999957,40.000006 c 0,3.324 2.676,6 6,6 v -6 h -3 z"
     fill-rule="evenodd"
     style="stroke-width:3" />
  <path
     id="mask-normal-right"
     d="m 48.999957,18.000006 v 22 h 6 v -22 z"
     fill-rule="evenodd"
     style="stroke-width:1.73205" />
  <path
     id="mask-normal-left"
     d="m 20.999957,18.000006 v 22 h 6 v -22 z"
     fill-rule="evenodd"
     style="stroke-width:1.73205" />
  <path
     id="mask-normal-topright"
     d="m 48.999957,12.000006 v 6 h 6 c 0,-3.324 -2.676,-6 -6,-6 z"
     fill-rule="evenodd"
     style="stroke-width:3" />
  <path
     id="mask-normal-top"
     d="m 26.999957,12.000006 v 6 h 22 v -6 z"
     fill-rule="evenodd"
     style="stroke-width:1.73205" />
  <path
     id="mask-normal-topleft"
     d="m 26.999957,12.000006 c -3.324,0 -6,2.676 -6,6 h 6 v -3 z"
     fill-rule="evenodd"
     style="stroke-width:3" />
  <path
     id="mask-focus-background-center"
     d="m 27,60.000008 h 22 v 22 H 27 Z"
     fill-rule="evenodd" />
  <path
     id="mask-focus-background-bottomright"
     d="m 49,82.000008 v 6 c 3.324,0 6,-2.676 6,-6 z"
     fill-rule="evenodd"
     style="stroke-width:3" />
  <path
     id="mask-focus-background-bottom"
     d="m 27,82.000008 v 6 h 22 v -6 z"
     fill-rule="evenodd"
     style="stroke-width:1.73205" />
  <path
     id="mask-focus-background-bottomleft"
     d="m 21,82.000008 c 0,3.324 2.676,6 6,6 v -6 h -3 z"
     fill-rule="evenodd"
     style="stroke-width:3" />
  <path
     id="mask-focus-background-right"
     d="m 49,60.000008 v 22 h 6 v -22 z"
     fill-rule="evenodd"
     style="stroke-width:1.73205" />
  <path
     id="mask-focus-background-left"
     d="m 21,60.000008 v 22 h 6 v -22 z"
     fill-rule="evenodd"
     style="stroke-width:1.73205" />
  <path
     id="mask-focus-background-topright"
     d="m 49,54.000008 v 6 h 6 c 0,-3.324 -2.676,-6 -6,-6 z"
     fill-rule="evenodd"
     style="stroke-width:3" />
  <path
     id="mask-focus-background-top"
     d="m 27,54.000008 v 6 h 22 v -6 z"
     fill-rule="evenodd"
     style="stroke-width:1.73205" />
  <path
     id="mask-focus-background-topleft"
     d="m 27,54.000008 c -3.324,0 -6,2.676 -6,6 h 6 v -3 z"
     fill-rule="evenodd"
     style="stroke-width:3" />
  <rect
     id="hint-stretch-borders"
     x="145.26686"
     y="10.000002"
     width="12"
     height="12"
     fill="#ff00ff"
     fill-rule="evenodd"
     style="stroke-width:4.24262"
     inkscape:label="hint-stretch-borders" />
  <g
     style="stroke-width:1.11803"
     transform="matrix(-0.99999985,0,0,0.68749976,171.00002,92.454502)"
     id="focus-right">
    <path
       inkscape:connector-curvature="0"
       id="path1"
       transform="matrix(-1.2500006,0,0,1,503.50021,72.999979)"
       d="m 362,-53 v 32 h 2 2 v -32 h -2 z"
       style="display:none;opacity:0.2;fill:#ffffff;stroke-width:1" />
    <path
       d="m 47.666599,20.000012 v 32 h 3.333389 v -32 z"
       style="opacity:0;fill:#1a1a1a;fill-opacity:1;fill-rule:evenodd;stroke-width:0.810198"
       id="path2"
       inkscape:connector-curvature="0" />
    <path
       d="m 45.999987,20.000011 v 32 h 1.666695 v -32 z"
       style="color:#000000;text-indent:0;text-transform:none;fill:#7844ff;fill-opacity:1;stroke-width:0.905826"
       id="path3"
       inkscape:connector-curvature="0" />
  </g>
  <g
     style="stroke-width:1.25"
     transform="matrix(0.99999879,0,0,0.99999879,81.000055,-917.15426)"
     id="focus-bottomright">
    <g
       style="display:none;stroke-width:1.25"
       id="g4"
       transform="matrix(-1,0,0,1,44,993.36)">
      <path
         inkscape:connector-curvature="0"
         id="path4"
         transform="matrix(-1.25,0,0,1.25,457.49998,77.999987)"
         d="m 362,-20 v 2 2 c 2.216,0 4,-1.784 4,-4 h -2 z"
         style="display:none;opacity:0.2;fill:#ffffff;stroke-width:1" />
    </g>
    <path
       d="m 42.333353,1046.3601 c 0,2.0833 -1.250001,3.3333 -3.333337,3.3333 v -3.3333 z"
       style="opacity:0;fill:#1a1a1a;fill-opacity:1;fill-rule:evenodd;stroke-width:0.666667"
       id="path5"
       inkscape:connector-curvature="0" />
    <path
       d="m 44.000022,1046.36 c 3.4e-5,2.75 -2.249982,5 -5.000005,5 v -1.6667 c 2.083336,0 3.333337,-1.25 3.333337,-3.3333 z"
       style="color:#000000;text-indent:0;text-transform:none;fill:#7844ff;fill-opacity:1;stroke-width:0.833334"
       id="path6"
       inkscape:connector-curvature="0" />
  </g>
  <g
     style="stroke-width:1.11803"
     transform="matrix(1.0000021,0,0,0.68749976,44.999911,92.454502)"
     id="focus-left">
    <path
       inkscape:connector-curvature="0"
       id="path7"
       transform="matrix(1.25,0,0,1,-358.99998,72.999979)"
       d="m 324,-53 v 32 h 2 2 v -32 h -2 z"
       style="display:none;opacity:0.2;fill:#ffffff;stroke-width:1" />
    <path
       d="m 47.666635,20.000012 v 32 h 3.333382 v -32 z"
       style="opacity:0;fill:#1a1a1a;fill-opacity:1;fill-rule:evenodd;stroke-width:0.810197"
       id="path8"
       inkscape:connector-curvature="0" />
    <path
       d="m 46.000027,20.000011 v 32 h 1.666691 v -32 z"
       style="color:#000000;text-indent:0;text-transform:none;fill:#00ccff;fill-opacity:1;stroke-width:0.905825"
       id="path9"
       inkscape:connector-curvature="0" />
  </g>
  <g
     transform="matrix(0.68749936,0,0,0.71348868,93.562525,-617.36149)"
     id="focus-bottom"
     style="fill:#565656;stroke-width:1.32361">
    <g
       id="g10"
       transform="translate(-48,994.36)"
       style="display:none;stroke-width:1.32361">
      <path
         inkscape:connector-curvature="0"
         id="path10"
         transform="matrix(1,0,0,1.7519682,-275.99999,87.039331)"
         d="m 329,-20 v 2 2 h 32 v -2 -2 z"
         style="display:none;opacity:0.2;fill:#ffffff;stroke-width:0.999989" />
    </g>
    <path
       d="M 5.0000192,1053.3678 H 37.000007 l -0.0031,-2.3362 -31.9968478,3e-4 z"
       style="color:#000000;text-indent:0;text-transform:none;fill:url(#linearGradient32);fill-opacity:1;stroke-width:1.7621"
       id="path11"
       inkscape:connector-curvature="0"
       sodipodi:nodetypes="ccccc" />
    <path
       d="m 5.0001062,1051.0319 31.9974428,10e-5 0.0025,-4.672 H 5.0000232 Z"
       style="opacity:0;fill:#1a1a1a;fill-opacity:1;fill-rule:evenodd;stroke-width:0.959166"
       id="path12"
       inkscape:connector-curvature="0"
       sodipodi:nodetypes="ccccc" />
  </g>
  <g
     style="stroke-width:1.25"
     transform="matrix(1.200008,0,0,1.200008,92.399975,-1126.4359)"
     id="focus-bottomleft">
    <g
       style="stroke-width:1.25"
       id="g15"
       transform="translate(-2,993.36)">
      <path
         inkscape:connector-curvature="0"
         id="path13"
         d="m 0.83334384,52.999987 c 0,2.308339 1.85833756,4.166676 4.16667616,4.166676 V 55.083325 52.999987 H 2.9166819 Z"
         style="display:none;opacity:0.2;fill:#ffffff;stroke-width:1.04167" />
      <path
         d="m 2.9917335,1049.1378 c -1.7278318,0 -2.76949153,-1.0417 -2.77775923,-2.7778 H 2.9917335 Z"
         style="opacity:0;fill:#1a1a1a;fill-opacity:1;fill-rule:evenodd;stroke-width:0.555552"
         id="path14"
         inkscape:connector-curvature="0"
         sodipodi:nodetypes="cccc"
         transform="translate(2,-993.36)" />
      <path
         d="m 3.0000014,1050.5266 c -2.29165143,0 -4.1666556,-1.8749 -4.1666389,-4.1666 h 1.38887957 c 0,1.7361 1.04165983,2.7778 2.77775933,2.7778 z"
         style="color:#000000;text-indent:0;text-transform:none;fill:#00ccff;fill-opacity:1;stroke-width:0.69444"
         id="path15"
         inkscape:connector-curvature="0"
         transform="translate(2,-993.36)" />
    </g>
  </g>
  <g
     style="stroke-width:1.11803"
     transform="matrix(0.68749936,0,0,0.99999697,93.562525,-905.1524)"
     id="focus-top">
    <g
       style="stroke-width:1.11803"
       id="g18"
       transform="translate(-48,988.36)">
      <path
         inkscape:connector-curvature="0"
         id="path16"
         transform="matrix(1,0,0,1.25,-275.99999,89.499974)"
         d="m 329,-58 v 2 2 h 32 v -2 -2 z"
         style="display:none;opacity:0.2;fill:#ffffff;stroke-width:1" />
      <path
         d="m 85.000035,18.666683 h -32 v 3.333163 h 32 z"
         style="opacity:0;fill:#1a1a1a;fill-opacity:1;fill-rule:evenodd;stroke-width:0.81017"
         id="path17"
         inkscape:connector-curvature="0" />
      <path
         d="m 85.000034,16.999949 h -32 v 1.667005 h 32 z"
         style="color:#000000;text-indent:0;text-transform:none;fill:url(#linearGradient31);fill-opacity:1;stroke-width:0.90591"
         id="path18"
         inkscape:connector-curvature="0" />
    </g>
  </g>
  <g
     style="stroke-width:0.750013"
     transform="matrix(1.6666744,0,0,1.6666744,91.000005,-1578.7367)"
     id="focus-topleft">
    <g
       style="stroke-width:0.750013"
       id="g24"
       transform="translate(-2,993.36)">
      <path
         inkscape:connector-curvature="0"
         id="path19"
         transform="matrix(0.74999777,0,0,0.74999777,-240.99926,57.499899)"
         d="m 328,-58 c -2.21599,0 -4,1.784015 -4,4 h 2 2 v -2 z"
         style="display:none;opacity:0.2;fill:#ffffff;stroke-width:1.00002" />
      <path
         d="m 4.9999566,15.000026 c -1.2499943,0 -1.9999908,0.749997 -1.9999908,1.999991 h 1.9999908 z"
         style="opacity:0;fill:#1a1a1a;fill-opacity:1;fill-rule:evenodd;stroke-width:0.399998"
         id="path21"
         inkscape:connector-curvature="0" />
      <path
         d="m 5.0000061,14.000031 c -1.6499924,0 -2.9999981,1.349994 -2.9999861,2.999986 h 0.9999953 c 0,-1.249994 0.7499965,-1.999991 1.9999908,-1.999991 z"
         style="color:#000000;text-indent:0;text-transform:none;fill:#00ccff;fill-opacity:1;stroke-width:0.300004"
         id="path24"
         inkscape:connector-curvature="0" />
    </g>
  </g>
  <g
     style="stroke-width:1.25"
     transform="matrix(1.0000017,0,0,1.0000017,80.999975,-905.1572)"
     id="focus-topright">
    <g
       style="stroke-width:1.25"
       id="g27"
       transform="matrix(-1,0,0,1,44,993.36)">
      <path
         inkscape:connector-curvature="0"
         id="path25"
         transform="matrix(-1.2500006,0,0,1.2500006,457.50022,84.500001)"
         d="m 362,-58 v 2 2 h 2 2 c 0,-2.215995 -1.784,-4 -4,-4 z"
         style="display:none;opacity:0.2;fill:#ffffff;stroke-width:1" />
      <path
         d="m 42.333336,1010.3599 c 0,-2.0833 -1.249998,-3.3333 -3.333328,-3.3333 v 3.3333 z"
         style="opacity:0;fill:#1a1a1a;fill-opacity:1;fill-rule:evenodd;stroke-width:0.666666"
         id="path26"
         inkscape:connector-curvature="0"
         transform="matrix(-1,0,0,1,44,-993.36)" />
      <path
         d="m 43.999994,1010.36 c 3.5e-5,-2.75 -2.249976,-5 -4.999991,-5 v 1.6667 c 2.083329,0 3.333327,1.25 3.333327,3.3333 z"
         style="color:#000000;text-indent:0;text-transform:none;fill:#7844ff;fill-opacity:1;stroke-width:0.833332"
         id="path27"
         inkscape:connector-curvature="0"
         transform="matrix(-1,0,0,1,44,-993.36)" />
    </g>
  </g>
  <path
     d="M 119,128.20448 V 106.2045 H 97.000005 v 21.99998 z"
     id="focus-center"
     style="opacity:0;fill:#ffffff;fill-opacity:1;stroke-width:0.687499"
     inkscape:connector-curvature="0" />
  <rect
     y="91.000023"
     x="-118.20451"
     height="4"
     width="1.9999999"
     id="focus-hint-left-margin"
     style="fill:#4e9a06;fill-opacity:1;fill-rule:nonzero;stroke:none;stroke-width:0.999992"
     transform="rotate(-90)" />
  <rect
     style="fill:#4e9a06;fill-opacity:1;fill-rule:nonzero;stroke:none;stroke-width:0.999992"
     id="focus-hint-top-margin"
     width="1.9999999"
     height="4"
     x="107.00002"
     y="100.20451" />
  <rect
     transform="rotate(-90)"
     style="fill:#4e9a06;fill-opacity:1;fill-rule:nonzero;stroke:none;stroke-width:0.999992"
     id="focus-hint-right-margin"
     width="2"
     height="4"
     x="-118.2045"
     y="121.00004" />
  <rect
     y="130.20451"
     x="107.00002"
     height="4"
     width="1.9999999"
     id="focus-hint-bottom-margin"
     style="fill:#4e9a06;fill-opacity:1;fill-rule:nonzero;stroke:none;stroke-width:1" />
  <rect
     id="hint-stretch-center"
     x="164.18196"
     y="10.000002"
     width="12"
     height="12"
     fill="#ff00ff"
     fill-rule="evenodd"
     style="stroke-width:4.24262"
     inkscape:label="hint-stretch-center" />
</svg>
