<?xml version="1.0" encoding="UTF-8" standalone="no"?>
<svg
   inkscape:version="1.4 (e7c3feb100, 2024-10-09)"
   sodipodi:docname="menubaritem copy.svg"
   id="svg414"
   version="1.0"
   height="212"
   width="220"
   xmlns:inkscape="http://www.inkscape.org/namespaces/inkscape"
   xmlns:sodipodi="http://sodipodi.sourceforge.net/DTD/sodipodi-0.dtd"
   xmlns:xlink="http://www.w3.org/1999/xlink"
   xmlns="http://www.w3.org/2000/svg"
   xmlns:svg="http://www.w3.org/2000/svg"
   xmlns:rdf="http://www.w3.org/1999/02/22-rdf-syntax-ns#"
   xmlns:cc="http://creativecommons.org/ns#"
   xmlns:dc="http://purl.org/dc/elements/1.1/">
  <metadata
     id="metadata418">
    <rdf:RDF>
      <cc:Work
         rdf:about="">
        <dc:format>image/svg+xml</dc:format>
        <dc:type
           rdf:resource="http://purl.org/dc/dcmitype/StillImage" />
      </cc:Work>
    </rdf:RDF>
  </metadata>
  <sodipodi:namedview
     inkscape:document-rotation="0"
     inkscape:snap-nodes="false"
     inkscape:snap-bbox-edge-midpoints="true"
     inkscape:bbox-paths="true"
     inkscape:bbox-nodes="true"
     inkscape:snap-bbox="true"
     inkscape:current-layer="svg414"
     inkscape:window-maximized="1"
     inkscape:window-y="0"
     inkscape:window-x="0"
     inkscape:cy="106"
     inkscape:cx="102.375"
     inkscape:zoom="4"
     showgrid="true"
     id="namedview416"
     inkscape:window-height="704"
     inkscape:window-width="1366"
     inkscape:pageshadow="2"
     inkscape:pageopacity="0"
     guidetolerance="10"
     gridtolerance="10"
     objecttolerance="10"
     borderopacity="1"
     bordercolor="#666666"
     pagecolor="#505050"
     inkscape:showpageshadow="2"
     inkscape:pagecheckerboard="0"
     inkscape:deskcolor="#696969">
    <inkscape:grid
       id="grid1331"
       type="xygrid"
       originx="0"
       originy="0"
       spacingy="1"
       spacingx="1"
       units="px"
       visible="true" />
  </sodipodi:namedview>
  <defs
     id="defs18">
    <linearGradient
       inkscape:collect="always"
       id="linearGradient2">
      <stop
         style="stop-color:#00ccff;stop-opacity:1;"
         offset="0"
         id="stop1" />
      <stop
         style="stop-color:#7844ff;stop-opacity:1;"
         offset="1"
         id="stop2" />
    </linearGradient>
    <style
       type="text/css"
       id="current-color-scheme">.ColorScheme-Text {
        color:#31363b;
        stop-color:#31363b;
      }
      .ColorScheme-Background {
        color:#eff0f1;
        stop-color:#eff0f1;
      }
      .ColorScheme-Highlight {
        color:#3daee9;
        stop-color:#3daee9;
      }
      .ColorScheme-ViewText {
        color:#31363b;
        stop-color:#31363b;
      }
      .ColorScheme-ViewBackground {
        color:#fcfcfc;
        stop-color:#fcfcfc;
      }
      .ColorScheme-ViewHover {
        color:#93cee9;
        stop-color:#93cee9;
      }
      .ColorScheme-ViewFocus{
        color:#3daee9;
        stop-color:#3daee9;
      }
      .ColorScheme-ButtonText {
        color:#31363b;
        stop-color:#31363b;
      }
      .ColorScheme-ButtonBackground {
        color:#eff0f1;
        stop-color:#eff0f1;
      }
      .ColorScheme-ButtonHover {
        color:#93cee9;
        stop-color:#93cee9;
      }
      .ColorScheme-ButtonFocus{
        color:#3daee9;
        stop-color:#3daee9;
      }</style>
    <linearGradient
       inkscape:collect="always"
       xlink:href="#linearGradient2"
       id="linearGradient30"
       x1="22.499874"
       y1="48.737026"
       x2="22.500002"
       y2="81.249023"
       gradientUnits="userSpaceOnUse" />
    <linearGradient
       inkscape:collect="always"
       xlink:href="#linearGradient2"
       id="linearGradient26-3"
       x1="22.5"
       y1="81.251602"
       x2="22.5"
       y2="48.751598"
       gradientUnits="userSpaceOnUse" />
  </defs>
  <path
     id="hover-tab-center"
     class="ColorScheme-Highlight"
     d="m 97.00003,62.000051 v 21.999945 h 21.99999 V 62.000051 Z"
     inkscape:connector-curvature="0"
     style="color:#3daee6;opacity:0.2;fill:#aaaaac;fill-opacity:1;stroke-width:0.458333" />
  <g
     style="opacity:1"
     id="hover-tab-topleft"
     transform="translate(-94.13998,-768.85999)">
    <g
       id="g16"
       transform="matrix(0.8,0,0,0.8,168.13999,791.85871)"
       style="opacity:1">
      <path
         d="M 6,17 C 3.5,17 2,18.5 2,21 H 6 Z"
         style="opacity:0.2;fill:#aaaaac;fill-opacity:1;fill-rule:evenodd;stroke-width:0.8"
         id="path15"
         inkscape:connector-curvature="0"
         transform="matrix(1.25,0,0,1.25,21.249876,22.501601)" />
      <path
         d="m 28.75,41.2516 c -4.125,-5.1e-5 -7.50003,3.37497 -7.5,7.5 h 2.5 c 0,-3.125 1.875,-5 5,-5 z"
         style="color:#000000;text-indent:0;text-transform:none;opacity:0.2;fill:#aaaaac;fill-opacity:1"
         id="path16"
         inkscape:connector-curvature="0" />
    </g>
  </g>
  <g
     id="hover-tab-topright"
     transform="matrix(0,0.8,-0.8,0,158.00119,39.0001)">
    <path
       d="M 6,17 C 3.5,17 2,18.5 2,21 H 6 Z"
       style="opacity:0.2;fill:#aaaaac;fill-opacity:1;fill-rule:evenodd;stroke-width:0.8"
       id="path11"
       inkscape:connector-curvature="0"
       transform="matrix(1.25,0,0,1.25,21.249876,22.501601)" />
    <path
       d="m 28.75,41.2516 c -4.125,-5.1e-5 -7.50003,3.37497 -7.5,7.5 h 2.5 c 0,-3.125 1.875,-5 5,-5 z"
       style="color:#000000;text-indent:0;text-transform:none;opacity:0.2;fill:#aaaaac;fill-opacity:1"
       id="path12"
       inkscape:connector-curvature="0" />
  </g>
  <g
     id="hover-tab-bottomright"
     transform="matrix(-0.8,0,0,-0.8,142.00001,123.00128)"
     inkscape:label="hover-tab-bottomright">
    <path
       transform="matrix(1.25,0,0,1.25,21.249876,22.501601)"
       d="M 6,17 C 3.5,17 2,18.5 2,21 H 6 Z"
       style="opacity:0.2;fill:#aaaaac;fill-opacity:1;fill-rule:evenodd;stroke-width:0.8"
       id="path7"
       inkscape:connector-curvature="0"
       sodipodi:nodetypes="cccc" />
    <path
       d="m 28.75,41.2516 c -4.125,-5.1e-5 -7.50003,3.37497 -7.5,7.5 h 2.5 c 0,-3.125 1.875,-5 5,-5 z"
       style="color:#000000;text-indent:0;text-transform:none;opacity:0.2;fill:#aaaaac;fill-opacity:1"
       id="path8"
       inkscape:connector-curvature="0"
       sodipodi:nodetypes="ccccc" />
  </g>
  <g
     id="hover-tab-bottomleft"
     transform="matrix(0,-0.8,0.8,0,57.998634,107)">
    <path
       transform="matrix(1.25,0,0,1.25,21.249876,22.501601)"
       d="M 6,17 C 3.5,17 2,18.5 2,21 H 6 Z"
       style="opacity:0.2;fill:#aaaaac;fill-opacity:1;fill-rule:evenodd;stroke-width:0.8"
       id="path3"
       inkscape:connector-curvature="0"
       sodipodi:nodetypes="cccc" />
    <path
       d="m 28.75,41.2516 c -4.125,-5.1e-5 -7.50003,3.37497 -7.5,7.5 h 2.5 c 0,-3.125 1.875,-5 5,-5 z"
       style="color:#000000;text-indent:0;text-transform:none;opacity:0.2;fill:#aaaaac;fill-opacity:1"
       id="path4"
       inkscape:connector-curvature="0"
       sodipodi:nodetypes="ccccc" />
  </g>
  <g
     style="opacity:1"
     id="hover-tab-top"
     transform="matrix(0.16793882,0,0,0.99999999,65.068141,-768.85995)">
    <g
       id="g14"
       transform="matrix(0,0.80000001,-4.0307714,0,517.64594,807.86006)">
      <path
         transform="matrix(1.25,0,0,1.015625,21.249876,27.423476)"
         d="M 2,21 V 53 H 6 V 21 Z"
         style="opacity:0.2;fill:#aaaaac;fill-opacity:1;fill-rule:evenodd;stroke-width:0.88752"
         id="path13"
         inkscape:connector-curvature="0" />
      <path
         d="m 21.25,48.7516 v 32.5 h 2.5 v -32.5 z"
         style="color:#000000;text-indent:0;text-transform:none;display:inline;opacity:0.2;fill:#aaaaac;fill-opacity:1"
         id="path14"
         inkscape:connector-curvature="0" />
    </g>
  </g>
  <g
     id="hover-tab-left"
     transform="matrix(0,-0.16793888,0.99999999,0,-733.85997,115.93189)">
    <g
       id="g2"
       transform="matrix(0,0.80000001,-4.0307704,0,517.64648,807.85999)">
      <path
         transform="matrix(1.25,0,0,1.015625,21.249876,27.423476)"
         d="M 2,21 V 53 H 6 V 21 Z"
         style="opacity:0.2;fill:#aaaaac;fill-opacity:1;fill-rule:evenodd;stroke-width:0.88752"
         id="path1"
         inkscape:connector-curvature="0"
         sodipodi:nodetypes="ccccc" />
      <path
         d="m 21.25,48.7516 v 32.5 h 2.5 v -32.5 z"
         style="color:#000000;text-indent:0;text-transform:none;opacity:0.2;fill:#aaaaac;fill-opacity:1"
         id="path2"
         inkscape:connector-curvature="0" />
    </g>
  </g>
  <g
     id="hover-tab-right"
     transform="matrix(0,0.16793887,-0.99999999,0,949.85998,30.068109)">
    <g
       id="g10"
       transform="matrix(0,0.80000001,4.0307706,0,-6.3665368,807.86018)">
      <path
         transform="matrix(1.25,0,0,1.015625,21.249876,27.423476)"
         d="M 2,21 V 53 H 6 V 21 Z"
         style="opacity:0.2;fill:#aaaaac;fill-opacity:1;fill-rule:evenodd;stroke-width:0.88752"
         id="path9"
         inkscape:connector-curvature="0"
         sodipodi:nodetypes="ccccc" />
      <path
         d="m 21.25,48.7516 v 32.5 h 2.5 v -32.5 z"
         style="color:#000000;text-indent:0;text-transform:none;opacity:0.2;fill:#aaaaac;fill-opacity:1"
         id="path10"
         inkscape:connector-curvature="0"
         sodipodi:nodetypes="ccccc" />
    </g>
  </g>
  <g
     id="hover-tab-bottom"
     transform="matrix(0.16793882,0,0,-0.99999999,65.068129,914.85999)">
    <g
       id="g6"
       transform="matrix(0,0.80000001,4.0307714,0,-6.367158,807.8601)">
      <path
         transform="matrix(1.25,0,0,1.015625,21.249876,27.423476)"
         d="M 2,21 V 53 H 6 V 21 Z"
         style="opacity:0.2;fill:#aaaaac;fill-opacity:1;fill-rule:evenodd;stroke-width:0.88752"
         id="path5"
         inkscape:connector-curvature="0"
         sodipodi:nodetypes="ccccc" />
      <path
         d="m 21.25,48.7516 v 32.5 h 2.5 v -11.72161 0 -20.77839 z"
         style="color:#000000;text-indent:0;text-transform:none;opacity:0.2;fill:#aaaaac;fill-opacity:1"
         id="path6"
         inkscape:connector-curvature="0"
         sodipodi:nodetypes="ccccccc" />
    </g>
  </g>
  <rect
     id="hover-tab-hint-top-margin"
     x="108"
     y="56"
     width="2"
     height="5"
     style="fill:#9a06ff;stroke-width:2.23607" />
  <rect
     id="hover-tab-hint-right-margin"
     transform="rotate(-90)"
     x="-74"
     y="120"
     width="2"
     height="5"
     style="fill:#9a06ff;stroke-width:1.58114" />
  <rect
     id="hover-tab-hint-left-margin"
     transform="rotate(-90)"
     x="-73"
     y="91"
     width="2"
     height="5"
     style="fill:#9a06ff;stroke-width:1.58115" />
  <rect
     height="4.9445438"
     width="2.0000858"
     y="85.055458"
     x="107.99992"
     id="hover-tab-hint-bottom-margin"
     style="fill:#9a06ff;stroke-width:1.29099" />
  <path
     id="normal-center"
     class="ColorScheme-Highlight"
     d="M 97.000019,17.000018 V 38.999932 H 119.00001 V 17.000018 Z"
     inkscape:connector-curvature="0"
     style="color:#3daee6;opacity:0;fill:#aaaaac;stroke-width:0.458332;fill-opacity:1" />
  <g
     style="opacity:1"
     id="normal-topleft"
     transform="translate(-94.13998,-813.85999)">
    <g
       id="button-normal-topleft"
       transform="matrix(0.8,0,0,0.8,168.13999,791.85871)">
      <path
         d="M 6,17 C 3.5,17 2,18.5 2,21 H 6 Z"
         style="opacity:0;fill:#aaaaac;fill-opacity:1;fill-rule:evenodd;stroke-width:0.8"
         id="path1632"
         inkscape:connector-curvature="0"
         transform="matrix(1.25,0,0,1.25,21.249876,22.501601)" />
      <path
         d="m 28.75,41.2516 c -4.125,-5.1e-5 -7.50003,3.37497 -7.5,7.5 h 2.5 c 0,-3.125 1.875,-5 5,-5 z"
         style="color:#000000;text-indent:0;text-transform:none;opacity:0;fill:#aaaaac;fill-opacity:1"
         id="path1634"
         inkscape:connector-curvature="0" />
    </g>
  </g>
  <g
     style="opacity:1"
     id="normal-top"
     transform="matrix(0.16793885,0,0,0.99999999,65.068126,-813.85996)">
    <g
       id="button-normal-top"
       transform="matrix(0,0.80000001,-4.0307707,0,517.64594,807.86007)">
      <path
         transform="matrix(1.25,0,0,1.015625,21.249876,27.423476)"
         d="M 2,21 V 53 H 6 V 21 Z"
         style="opacity:0;fill:#aaaaac;fill-opacity:1;fill-rule:evenodd;stroke-width:0.88752"
         id="path1627"
         inkscape:connector-curvature="0" />
      <path
         d="m 21.25,48.7516 v 32.5 h 2.5 v -32.5 z"
         style="color:#000000;text-indent:0;text-transform:none;opacity:0;fill:#aaaaac;fill-opacity:1"
         id="path1629"
         inkscape:connector-curvature="0" />
    </g>
  </g>
  <g
     transform="matrix(-0.99999999,0,0,0.99999999,310.14001,-813.85999)"
     id="normal-topright"
     style="opacity:1">
    <g
       id="button-normal-topright"
       transform="matrix(0,0.80000001,0.80000001,0,152.13882,807.8601)">
      <path
         d="M 6,17 C 3.5,17 2,18.5 2,21 H 6 Z"
         style="opacity:0;fill:#aaaaac;fill-opacity:1;fill-rule:evenodd;stroke-width:0.8"
         id="path1622"
         inkscape:connector-curvature="0"
         transform="matrix(1.25,0,0,1.25,21.249876,22.501601)" />
      <path
         d="m 28.75,41.2516 c -4.125,-5.1e-5 -7.50003,3.37497 -7.5,7.5 h 2.5 c 0,-3.125 1.875,-5 5,-5 z"
         style="color:#000000;text-indent:0;text-transform:none;opacity:0;fill:#aaaaac;fill-opacity:1"
         id="path1624"
         inkscape:connector-curvature="0" />
    </g>
  </g>
  <g
     transform="matrix(0,-0.16793856,0.99999999,0,-733.85996,70.931723)"
     id="normal-left"
     style="opacity:1">
    <g
       id="button-normal-left"
       transform="matrix(0,0.80000001,-4.0307781,0,517.64647,807.85999)"
       style="opacity:1">
      <path
         transform="matrix(1.25,0,0,1.015625,21.249876,27.423476)"
         d="M 2,21 V 53 H 6 V 21 Z"
         style="opacity:0;fill:#aaaaac;fill-opacity:1;fill-rule:evenodd;stroke-width:0.88752"
         id="path1597"
         inkscape:connector-curvature="0"
         sodipodi:nodetypes="ccccc" />
      <path
         d="m 21.25,48.7516 v 32.5 h 2.5 v -32.5 z"
         style="color:#000000;text-indent:0;text-transform:none;opacity:0;fill:#aaaaac;fill-opacity:1"
         id="path1599"
         inkscape:connector-curvature="0" />
    </g>
  </g>
  <g
     transform="matrix(0,0.16793853,-0.99999999,0,949.85992,-14.931856)"
     id="normal-right"
     style="opacity:1">
    <g
       id="button-normal-right"
       transform="matrix(0,0.80000001,4.0307788,0,-6.3667581,807.86012)">
      <path
         transform="matrix(1.25,0,0,1.015625,21.249876,27.423476)"
         d="M 2,21 V 53 H 6 V 21 Z"
         style="opacity:0;fill:#aaaaac;fill-opacity:1;fill-rule:evenodd;stroke-width:0.88752"
         id="path1617"
         inkscape:connector-curvature="0"
         sodipodi:nodetypes="ccccc" />
      <path
         d="m 21.25,48.7516 v 32.5 h 2.5 v -32.5 z"
         style="color:#000000;text-indent:0;text-transform:none;opacity:0;fill:#aaaaac;fill-opacity:1"
         id="path1619"
         inkscape:connector-curvature="0"
         sodipodi:nodetypes="ccccc" />
    </g>
  </g>
  <g
     transform="matrix(0.16793885,0,0,-0.99999999,65.068121,869.85999)"
     id="normal-bottom"
     style="opacity:1">
    <g
       id="button-normal-bottom"
       transform="matrix(0,0.80000001,4.0307707,0,-6.3671092,807.8601)">
      <path
         transform="matrix(1.25,0,0,1.015625,21.249876,27.423476)"
         d="M 2,21 V 53 H 6 V 21 Z"
         style="opacity:0;fill:#aaaaac;fill-opacity:1;fill-rule:evenodd;stroke-width:0.88752"
         id="path1607"
         inkscape:connector-curvature="0"
         sodipodi:nodetypes="ccccc" />
      <path
         d="m 21.25,48.7516 v 32.5 h 2.5 v -11.72161 0 -20.77839 z"
         style="color:#000000;text-indent:0;text-transform:none;opacity:0;fill:#aaaaac;fill-opacity:1"
         id="path1609"
         inkscape:connector-curvature="0"
         sodipodi:nodetypes="ccccccc" />
    </g>
  </g>
  <g
     transform="matrix(0.99999999,0,0,-0.99999999,-94.14,869.85999)"
     id="normal-bottomleft"
     style="opacity:1">
    <g
       id="button-normal-bottomleft"
       transform="matrix(0,0.80000001,0.80000001,0,152.13864,807.86)">
      <path
         transform="matrix(1.25,0,0,1.25,21.249876,22.501601)"
         d="M 6,17 C 3.5,17 2,18.5 2,21 H 6 Z"
         style="opacity:0;fill:#aaaaac;fill-opacity:1;fill-rule:evenodd;stroke-width:0.8"
         id="path1602"
         inkscape:connector-curvature="0"
         sodipodi:nodetypes="cccc" />
      <path
         d="m 28.75,41.2516 c -4.125,-5.1e-5 -7.50003,3.37497 -7.5,7.5 h 2.5 c 0,-3.125 1.875,-5 5,-5 z"
         style="color:#000000;text-indent:0;text-transform:none;opacity:0;fill:#aaaaac;fill-opacity:1"
         id="path1604"
         inkscape:connector-curvature="0"
         sodipodi:nodetypes="ccccc" />
    </g>
  </g>
  <g
     transform="rotate(180,155.06998,434.93002)"
     id="normal-bottomright"
     style="opacity:1">
    <g
       id="button-normal-bottomright"
       transform="matrix(0.8,0,0,0.8,168.13995,791.85876)">
      <path
         transform="matrix(1.25,0,0,1.25,21.249876,22.501601)"
         d="M 6,17 C 3.5,17 2,18.5 2,21 H 6 Z"
         style="opacity:0;fill:#aaaaac;fill-opacity:1;fill-rule:evenodd;stroke-width:0.8"
         id="path1612"
         inkscape:connector-curvature="0"
         sodipodi:nodetypes="cccc" />
      <path
         d="m 28.75,41.2516 c -4.125,-5.1e-5 -7.50003,3.37497 -7.5,7.5 h 2.5 c 0,-3.125 1.875,-5 5,-5 z"
         style="color:#000000;text-indent:0;text-transform:none;opacity:0;fill:#aaaaac;fill-opacity:1"
         id="path1614"
         inkscape:connector-curvature="0"
         sodipodi:nodetypes="ccccc" />
    </g>
  </g>
  <path
     id="active-tab-center"
     class="ColorScheme-Highlight"
     d="m 97.000052,107.00001 v 21.99994 h 21.999958 v -21.99994 z"
     inkscape:connector-curvature="0"
     style="color:#3daee6;opacity:0;fill:#aaaaac;fill-opacity:1;stroke-width:0.458331" />
  <g
     style="opacity:1"
     id="active-tab-topleft"
     transform="translate(-94.13998,-723.86)">
    <g
       id="button-toggled-topleft"
       transform="matrix(0.8,0,0,0.8,168.13998,791.85872)">
      <path
         transform="matrix(1.25,0,0,1.25,21.249876,22.501601)"
         d="M 6,17 C 3.5,17 2,18.5 2,21 H 6 Z"
         style="opacity:0;fill:#1a1a1a;fill-opacity:1;fill-rule:evenodd;stroke-width:0.8"
         id="path1755"
         inkscape:connector-curvature="0" />
      <path
         d="m 28.75,41.2516 c -4.125,-5.1e-5 -7.50003,3.37497 -7.5,7.5 h 2.5 c 0,-3.125 1.875,-5 5,-5 z"
         style="color:#000000;text-indent:0;text-transform:none;opacity:1;fill:#00ccff;fill-opacity:1"
         id="path1757-2"
         inkscape:connector-curvature="0" />
    </g>
  </g>
  <g
     style="opacity:1"
     id="active-tab-top"
     transform="matrix(0.66412118,0,0,0.99999999,-94.275883,-723.85996)">
    <g
       id="button-toggled-top"
       transform="matrix(0,0.80000001,-1.0192762,0,370.83136,807.85997)">
      <path
         transform="matrix(1.25,0,0,1.015625,21.249876,27.423476)"
         d="M 2,21 V 53 H 6 V 21 Z"
         style="opacity:0;fill:#1a1a1a;fill-opacity:1;fill-rule:evenodd;stroke-width:0.88752"
         id="path1750"
         inkscape:connector-curvature="0" />
      <path
         d="m 21.25,48.7516 v 32.5 h 2.5 v -32.5 z"
         style="color:#000000;text-indent:0;text-transform:none;opacity:1;fill:url(#linearGradient26-3);fill-opacity:1"
         id="path1752-6"
         inkscape:connector-curvature="0" />
    </g>
  </g>
  <g
     transform="matrix(-0.99999999,0,0,0.99999999,310.14007,-723.85999)"
     id="active-tab-topright"
     style="opacity:1">
    <g
       id="button-toggled-topright"
       transform="matrix(0,0.80000001,0.80000001,0,152.13879,807.8601)">
      <path
         transform="matrix(1.25,0,0,1.25,21.249876,22.501601)"
         d="M 6,17 C 3.5,17 2,18.5 2,21 H 6 Z"
         style="opacity:0;fill:#1a1a1a;fill-opacity:1;fill-rule:evenodd;stroke-width:0.8"
         id="path1745"
         inkscape:connector-curvature="0" />
      <path
         d="m 28.75,41.2516 c -4.125,-5.1e-5 -7.50003,3.37497 -7.5,7.5 h 2.5 c 0,-3.125 1.875,-5 5,-5 z"
         style="color:#000000;text-indent:0;text-transform:none;opacity:1;fill:#7844ff;fill-opacity:1"
         id="path1747"
         inkscape:connector-curvature="0" />
    </g>
  </g>
  <g
     transform="matrix(0,-0.16793872,0.99999999,0,-733.85996,160.93183)"
     id="active-tab-left"
     style="opacity:1">
    <g
       id="button-toggled-left"
       transform="matrix(0,0.80000001,-4.0307742,0,517.64662,807.85997)">
      <path
         transform="matrix(1.25,0,0,1.015625,21.249876,27.423476)"
         d="M 2,21 V 53 H 6 V 21 Z"
         style="opacity:0;fill:#1a1a1a;fill-opacity:1;fill-rule:evenodd;stroke-width:0.88752"
         id="path1720"
         inkscape:connector-curvature="0" />
      <path
         d="m 21.25,48.7516 v 32.5 h 2.5 v -32.5 z"
         style="color:#000000;text-indent:0;text-transform:none;opacity:1;fill:#00ccff;fill-opacity:1"
         id="path1722"
         inkscape:connector-curvature="0" />
    </g>
  </g>
  <g
     transform="matrix(0,0.16793868,-0.99999999,0,949.85998,75.068109)"
     id="active-tab-right"
     style="opacity:1">
    <g
       id="button-toggled-right"
       transform="matrix(0,0.80000001,4.0307752,0,-6.366544,807.86009)">
      <path
         transform="matrix(1.25,0,0,1.015625,21.249876,27.423476)"
         d="M 2,21 V 53 H 6 V 21 Z"
         style="opacity:0;fill:#1a1a1a;fill-opacity:1;fill-rule:evenodd;stroke-width:0.88752"
         id="path1740"
         inkscape:connector-curvature="0" />
      <path
         d="m 21.25,48.7516 v 32.5 h 2.5 v -32.5 z"
         style="color:#000000;text-indent:0;text-transform:none;opacity:1;fill:#7844ff;fill-opacity:1"
         id="path1742"
         inkscape:connector-curvature="0" />
    </g>
  </g>
  <g
     transform="matrix(0.66412118,0,0,-0.99999999,-94.275933,959.85999)"
     id="active-tab-bottom"
     style="opacity:1">
    <g
       id="button-toggled-bottom"
       transform="matrix(0,0.80000001,1.0192761,0,238.32489,807.8601)">
      <path
         d="m 21.249878,48.749021 v 32.5 l 2.500248,-0.0031 -2.5e-4,-32.496812 z"
         style="color:#000000;text-indent:0;text-transform:none;opacity:1;fill:url(#linearGradient30);fill-opacity:1;stroke-width:1.83712"
         id="path1732"
         inkscape:connector-curvature="0"
         sodipodi:nodetypes="ccccc" />
      <path
         d="m 23.749876,48.749109 -1.23e-4,32.497416 5.000124,0.0025 v -32.5 z"
         style="opacity:0;fill:#1a1a1a;fill-opacity:1;fill-rule:evenodd;stroke-width:1"
         id="path1730"
         inkscape:connector-curvature="0"
         sodipodi:nodetypes="ccccc" />
    </g>
  </g>
  <g
     transform="matrix(0.99999999,0,0,-0.99999999,-94.13998,959.85998)"
     id="active-tab-bottomleft"
     style="opacity:1">
    <g
       id="button-toggled-bottomleft"
       transform="matrix(0,0.80000001,0.80000001,0,152.14125,807.86009)">
      <path
         d="m 28.749878,41.24842 c -4.777195,0 -7.5,3.74841 -7.5,7.5 h 7.499997 z"
         style="display:none;opacity:1;fill:#1a1a1a;fill-opacity:1;fill-rule:evenodd;stroke-width:1.22448"
         id="path1725"
         inkscape:connector-curvature="0"
         sodipodi:nodetypes="cccc" />
      <path
         d="m 28.731941,93.751601 c -3.110118,-3e-6 -4.985118,-1.875003 -5,-5 h 5 z"
         style="opacity:0;fill:#1a1a1a;fill-opacity:1;fill-rule:evenodd;stroke-width:1"
         id="path23"
         inkscape:connector-curvature="0"
         transform="rotate(90,48.749941,68.751535)"
         sodipodi:nodetypes="cccc" />
      <path
         d="m 28.732065,96.251602 c -4.125,5.1e-5 -7.50003,-3.37497 -7.5,-7.5 h 2.5 c 0,3.125 1.875,5 5,5 z"
         style="color:#000000;text-indent:0;text-transform:none;display:none;opacity:1;fill:#00ccff;fill-opacity:1"
         id="path24"
         inkscape:connector-curvature="0"
         transform="rotate(90,48.749941,68.751535)" />
      <path
         d="m 21.249878,48.748417 c -5e-5,-4.125 3.374971,-7.50003 7.5,-7.5 v 2.5 c -3.125,0 -5,1.875 -5,5 z"
         style="color:#000000;text-indent:0;text-transform:none;display:inline;opacity:1;fill:#00ccff;fill-opacity:1"
         id="path30"
         inkscape:connector-curvature="0" />
    </g>
  </g>
  <g
     transform="rotate(180,155.07004,479.93)"
     id="active-tab-bottomright"
     style="opacity:1">
    <g
       id="button-toggled-bottomright"
       transform="matrix(0.7999408,0,0,0.8,168.13933,791.85872)">
      <path
         d="m 28.750001,41.2516 c -4.790487,2e-6 -7.494999,2.819982 -7.497501,7.5 h 2.499167 l 5.001388,3e-6 -0.0031,-5.000003 z"
         style="color:#000000;text-indent:0;text-transform:none;display:none;opacity:1;fill:#1a1a1a;fill-opacity:1;stroke-width:0.999833"
         id="path1737"
         inkscape:connector-curvature="0"
         sodipodi:nodetypes="cccccc" />
      <path
         d="m 68.749999,43.754785 c 3.125,0 5,1.875 5,5 h -5 z"
         style="opacity:0;fill:#1a1a1a;fill-opacity:1;fill-rule:evenodd;stroke-width:1"
         id="path20"
         inkscape:connector-curvature="0"
         transform="matrix(0,-1,1.000074,0,-20.005325,117.50148)" />
      <path
         d="m 68.749875,41.254784 c 4.125,-5.1e-5 7.50003,3.37497 7.5,7.5 h -2.5 c 0,-3.125 -1.875,-5 -5,-5 z"
         style="color:#000000;text-indent:0;text-transform:none;opacity:1;fill:#7844ff;fill-opacity:1"
         id="path22"
         inkscape:connector-curvature="0"
         transform="matrix(0,-1,1.000074,0,-20.005325,117.50148)" />
    </g>
  </g>
  <rect
     id="active-tab-hint-top-margin"
     x="106.99999"
     y="101"
     width="1.9999999"
     height="5"
     style="fill:#9a06ff;stroke-width:2.23607" />
  <rect
     id="active-tab-hint-right-margin"
     transform="rotate(-90)"
     x="-119"
     y="120"
     width="2"
     height="5"
     style="fill:#9a06ff;stroke-width:1.58114" />
  <rect
     id="active-tab-hint-left-margin"
     transform="rotate(-90)"
     x="-118.99998"
     y="91"
     width="1.9999999"
     height="5"
     style="fill:#9a06ff;stroke-width:1.58115" />
  <rect
     height="5"
     width="1.9989929"
     y="130"
     x="107"
     id="active-tab-hint-bottom-margin"
     style="fill:#9a06ff;stroke-width:1.29099" />
  <rect
     y="40"
     x="107"
     height="5"
     width="1.9999924"
     id="normal-hint-bottom-margin"
     style="fill:#4e9a06;fill-opacity:1;fill-rule:nonzero;stroke:none;stroke-width:0.912872" />
  <rect
     style="fill:#4e9a06;fill-opacity:1;fill-rule:nonzero;stroke:none;stroke-width:0.912871"
     id="normal-hint-top-margin"
     width="2"
     height="5"
     x="107"
     y="11" />
  <rect
     y="91"
     x="-29"
     height="5"
     width="2"
     id="normal-hint-left-margin"
     style="fill:#4e9a06;fill-opacity:1;fill-rule:nonzero;stroke:none;stroke-width:0.912871"
     transform="rotate(-90)" />
  <rect
     transform="rotate(-90)"
     style="fill:#4e9a06;fill-opacity:1;fill-rule:nonzero;stroke:none;stroke-width:0.912868"
     id="normal-hint-right-margin"
     width="1.9999275"
     height="5"
     x="-29"
     y="120" />
  <path
     id="mask-normal-center"
     d="m 26.999957,18.000006 h 22 v 22 h -22 z"
     fill-rule="evenodd" />
  <path
     id="mask-normal-bottomright"
     d="m 48.999957,40.000006 v 6 c 3.324,0 6,-2.676 6,-6 z"
     fill-rule="evenodd"
     style="stroke-width:3" />
  <path
     id="mask-normal-bottom"
     d="m 26.999957,40.000006 v 6 h 22 v -6 z"
     fill-rule="evenodd"
     style="stroke-width:1.73205" />
  <path
     id="mask-normal-bottomleft"
     d="m 20.999957,40.000006 c 0,3.324 2.676,6 6,6 v -6 h -3 z"
     fill-rule="evenodd"
     style="stroke-width:3" />
  <path
     id="mask-normal-right"
     d="m 48.999957,18.000006 v 22 h 6 v -22 z"
     fill-rule="evenodd"
     style="stroke-width:1.73205" />
  <path
     id="mask-normal-left"
     d="m 20.999957,18.000006 v 22 h 6 v -22 z"
     fill-rule="evenodd"
     style="stroke-width:1.73205" />
  <path
     id="mask-normal-topright"
     d="m 48.999957,12.000006 v 6 h 6 c 0,-3.324 -2.676,-6 -6,-6 z"
     fill-rule="evenodd"
     style="stroke-width:3" />
  <path
     id="mask-normal-top"
     d="m 26.999957,12.000006 v 6 h 22 v -6 z"
     fill-rule="evenodd"
     style="stroke-width:1.73205" />
  <path
     id="mask-normal-topleft"
     d="m 26.999957,12.000006 c -3.324,0 -6,2.676 -6,6 h 6 v -3 z"
     fill-rule="evenodd"
     style="stroke-width:3" />
  <path
     id="mask-focus-background-center"
     d="m 27,60.000008 h 22 v 22 H 27 Z"
     fill-rule="evenodd" />
  <path
     id="mask-focus-background-bottomright"
     d="m 49,82.000008 v 6 c 3.324,0 6,-2.676 6,-6 z"
     fill-rule="evenodd"
     style="stroke-width:3" />
  <path
     id="mask-focus-background-bottom"
     d="m 27,82.000008 v 6 h 22 v -6 z"
     fill-rule="evenodd"
     style="stroke-width:1.73205" />
  <path
     id="mask-focus-background-bottomleft"
     d="m 21,82.000008 c 0,3.324 2.676,6 6,6 v -6 h -3 z"
     fill-rule="evenodd"
     style="stroke-width:3" />
  <path
     id="mask-focus-background-right"
     d="m 49,60.000008 v 22 h 6 v -22 z"
     fill-rule="evenodd"
     style="stroke-width:1.73205" />
  <path
     id="mask-focus-background-left"
     d="m 21,60.000008 v 22 h 6 v -22 z"
     fill-rule="evenodd"
     style="stroke-width:1.73205" />
  <path
     id="mask-focus-background-topright"
     d="m 49,54.000008 v 6 h 6 c 0,-3.324 -2.676,-6 -6,-6 z"
     fill-rule="evenodd"
     style="stroke-width:3" />
  <path
     id="mask-focus-background-top"
     d="m 27,54.000008 v 6 h 22 v -6 z"
     fill-rule="evenodd"
     style="stroke-width:1.73205" />
  <path
     id="mask-focus-background-topleft"
     d="m 27,54.000008 c -3.324,0 -6,2.676 -6,6 h 6 v -3 z"
     fill-rule="evenodd"
     style="stroke-width:3" />
  <rect
     id="hint-stretch-borders"
     x="144"
     y="9"
     width="12"
     height="12"
     fill="#ff00ff"
     fill-rule="evenodd"
     style="stroke-width:4.24262"
     inkscape:label="hint-stretch-borders" />
  <rect
     id="hint-tile-center"
     x="164"
     y="24"
     width="12"
     height="12"
     fill="#ff00ff"
     fill-rule="evenodd"
     style="stroke-width:4.24262"
     inkscape:label="hint-tile-center" />
</svg>
