<?xml version="1.0" encoding="UTF-8" standalone="no"?>
<svg
   id="svg2"
   height="40"
   viewBox="0 0 60 40"
   width="60"
   sodipodi:docname="radiobutton.svg"
   inkscape:version="1.3.2 (091e20ef0f, 2023-11-25, custom)"
   version="1.1"
   xmlns:inkscape="http://www.inkscape.org/namespaces/inkscape"
   xmlns:sodipodi="http://sodipodi.sourceforge.net/DTD/sodipodi-0.dtd"
   xmlns:xlink="http://www.w3.org/1999/xlink"
   xmlns="http://www.w3.org/2000/svg"
   xmlns:svg="http://www.w3.org/2000/svg">
  <defs
     id="defs16">
    <linearGradient
       inkscape:collect="always"
       xlink:href="#linearGradient6969"
       id="linearGradient1923"
       gradientUnits="userSpaceOnUse"
       x1="89.828064"
       y1="133.08853"
       x2="96.842461"
       y2="133.08853"
       gradientTransform="matrix(2.1065828,0,0,2.1069931,-103.69796,-148.02024)" />
    <linearGradient
       inkscape:collect="always"
       id="linearGradient6969">
      <stop
         style="stop-color:#00ccff;stop-opacity:1;"
         offset="0"
         id="stop6935" />
      <stop
         style="stop-color:#7844ff;stop-opacity:1;"
         offset="0.89999998"
         id="stop6936" />
    </linearGradient>
    <linearGradient
       inkscape:collect="always"
       xlink:href="#linearGradient6969"
       id="linearGradient4"
       gradientUnits="userSpaceOnUse"
       x1="85"
       y1="133"
       x2="101"
       y2="133"
       gradientTransform="matrix(0.88888889,0,0,0.88888889,10.333333,14.777786)" />
    <linearGradient
       inkscape:collect="always"
       xlink:href="#linearGradient6969"
       id="linearGradient2155"
       x1="85"
       y1="133"
       x2="101"
       y2="133"
       gradientUnits="userSpaceOnUse" />
    <linearGradient
       inkscape:collect="always"
       xlink:href="#linearGradient6969"
       id="linearGradient1"
       gradientUnits="userSpaceOnUse"
       gradientTransform="matrix(2.3699056,0,0,2.3703672,-128.2852,-183.14778)"
       x1="89.997337"
       y1="133.18752"
       x2="96.748665"
       y2="133.18752" />
    <linearGradient
       inkscape:collect="always"
       xlink:href="#linearGradient6969"
       id="linearGradient2155-7"
       x1="85"
       y1="133"
       x2="101"
       y2="133"
       gradientUnits="userSpaceOnUse" />
    <linearGradient
       inkscape:collect="always"
       xlink:href="#linearGradient6969"
       id="linearGradient2"
       gradientUnits="userSpaceOnUse"
       gradientTransform="matrix(2.3699056,0,0,2.3703672,-128.2852,-183.14778)"
       x1="89.997337"
       y1="133.18752"
       x2="96.748665"
       y2="133.18752" />
    <linearGradient
       inkscape:collect="always"
       xlink:href="#linearGradient6969"
       id="linearGradient2101"
       x1="125"
       y1="133"
       x2="141"
       y2="133"
       gradientUnits="userSpaceOnUse" />
    <linearGradient
       inkscape:collect="always"
       xlink:href="#linearGradient6969"
       id="linearGradient3"
       gradientUnits="userSpaceOnUse"
       gradientTransform="matrix(2.3699056,0,0,2.3703672,-128.2852,-183.14778)"
       x1="89.828064"
       y1="133.08853"
       x2="96.842461"
       y2="133.08853" />
  </defs>
  <sodipodi:namedview
     id="namedview14"
     pagecolor="#c8c8c8"
     bordercolor="#111111"
     borderopacity="1"
     inkscape:pageshadow="0"
     inkscape:pageopacity="0"
     inkscape:pagecheckerboard="false"
     inkscape:blackoutopacity="0.0"
     showgrid="true"
     inkscape:current-layer="svg2"
     inkscape:showpageshadow="2"
     inkscape:deskcolor="#d1d1d1"
     inkscape:zoom="11.8"
     inkscape:cx="43.516949"
     inkscape:cy="9.1949153"
     inkscape:window-width="1920"
     inkscape:window-height="1004"
     inkscape:window-x="0"
     inkscape:window-y="0"
     inkscape:window-maximized="1">
    <inkscape:grid
       type="xygrid"
       id="grid1112"
       originx="0"
       originy="0"
       spacingy="1"
       spacingx="1"
       units="px"
       visible="true" />
  </sodipodi:namedview>
  <style
     type="text/css"
     id="current-color-scheme">
        .ColorScheme-Highlight {
            color:#3daee9;
            stop-color:#3daee9;
        }
        .ColorScheme-ButtonText {
            color:#232629;
            stop-color:#232629;
        }
        .ColorScheme-ButtonBackground {
            color:#eff0f1;
            stop-color:#eff0f1;
        }
    </style>
  <g
     id="checked"
     transform="translate(-8,6)">
    <g
       id="checkbox-checked-normal"
       transform="translate(-75,-109)"
       inkscape:label="checkbox-checked-normal">
      <path
         transform="translate(-40)"
         d="m 127,125 c -1.108,0 -2,0.892 -2,2 v 12 c 0,1.108 0.892,2 2,2 h 12 c 1.108,0 2,-0.892 2,-2 v -12 c 0,-1.108 -0.892,-2 -2,-2 z"
         style="display:inline;fill:url(#linearGradient2101);fill-opacity:1"
         id="path1262"
         inkscape:connector-curvature="0" />
      <rect
         x="85"
         y="125"
         width="16"
         height="15.999985"
         ry="3.7864146"
         style="display:none;fill:url(#linearGradient3);fill-opacity:1;stroke-width:2.37014"
         id="rect1839-7-6"
         rx="3.1426179" />
      <path
         d="m 97.783637,128.28067 c -0.337258,0.011 -0.691713,0.1536 -0.956726,0.4185 l -5.740355,5.7404 -1.913451,-1.9134 c -0.530026,-0.5301 -1.349982,-0.5635 -1.853655,-0.06 l -0.119591,0.1196 c -0.503673,0.5036 -0.470231,1.3235 0.05979,1.8536 l 2.660893,2.631 c 0.04659,0.072 0.08653,0.1165 0.149489,0.1794 l 0.11958,0.12 c 0.04791,0.044 0.09781,0.085 0.149489,0.1195 0.01272,0.011 0.01692,0.022 0.0299,0.03 0.06416,0.042 0.141106,0.06 0.209285,0.089 0.05967,0.024 0.116906,0.045 0.179385,0.059 0.02157,0.012 0.03807,0.025 0.05979,0.03 0.165282,0.031 0.340191,0.033 0.508261,0 0.03161,-0.011 0.05857,-0.022 0.0897,-0.03 0.22706,-0.061 0.446334,-0.1773 0.627851,-0.3587 l 0.05979,-0.06 c 0.06296,-0.063 0.102901,-0.1075 0.149488,-0.1794 l 6.487797,-6.4579 c 0.530026,-0.5299 0.563468,-1.3499 0.05979,-1.8537 l -0.11959,-0.1195 c -0.251838,-0.2518 -0.559672,-0.3674 -0.89693,-0.3589 z"
         style="fill:#1e1e20;fill-opacity:1"
         id="path1264"
         inkscape:connector-curvature="0" />
    </g>
  </g>
  <g
     id="focus"
     style="fill:currentColor"
     class="ColorScheme-Highlight"
     transform="translate(42,6)">
    <path
       id="path929"
       d="m 8,16 c -4.41235126727,0 -8,3.5876487327 -8,8 0,4.4123512673 3.58764873273,8 8,8 4.4123512673,0 8,-3.5876487327 8,-8 0,-4.4123512673 -3.5876487327,-8 -8,-8 z m 0,1 c 3.8719116927,0 7,3.1280883073 7,7 0,3.8719116927 -3.1280883073,7 -7,7 -3.87191169273,0 -7,-3.1280883073 -7,-7 0,-3.8719116927 3.12808830727,-7 7,-7 z"
       style="opacity:1;fill-rule:evenodd" />
    <g
       id="checkbox-focused-5"
       transform="translate(-85,-109)"
       inkscape:label="checkbox-focused">
      <rect
         x="85"
         y="125"
         width="16"
         height="16"
         ry="2"
         style="display:inline;opacity:1;fill:url(#linearGradient2155-7);fill-opacity:1"
         id="rect1257-6"
         inkscape:label="rect1257-sharper-corner" />
      <rect
         x="85"
         y="125"
         width="16"
         height="15.999985"
         ry="3.7864146"
         style="fill:url(#linearGradient2);fill-opacity:1;stroke-width:2.37014"
         id="rect1839-7-2"
         rx="3.1426179" />
      <rect
         x="86.555557"
         y="126.55555"
         width="12.888889"
         height="12.888889"
         ry="2.3208461"
         style="display:none;fill:#1a1a1a;fill-opacity:1;stroke-width:2.38449"
         id="rect1254-5-9" />
      <rect
         x="86.555557"
         y="126.55556"
         width="12.888889"
         height="12.888889"
         ry="0.92063493"
         style="display:inline;fill:#1a1a1a;fill-opacity:1;stroke-width:0.920635"
         id="rect1259-1"
         inkscape:label="rect1259-sharper-corner" />
    </g>
  </g>
  <g
     id="hover"
     transform="translate(22,6)">
    <g
       id="checkbox-focused"
       transform="translate(-85,-109)"
       inkscape:label="checkbox-focused">
      <rect
         x="85"
         y="125"
         width="16"
         height="16"
         ry="2"
         style="display:inline;opacity:1;fill:url(#linearGradient2155);fill-opacity:1"
         id="rect1257"
         inkscape:label="rect1257-sharper-corner" />
      <rect
         x="85"
         y="125"
         width="16"
         height="15.999985"
         ry="3.7864146"
         style="fill:url(#linearGradient1);fill-opacity:1;stroke-width:2.37014"
         id="rect1839-7"
         rx="3.1426179" />
      <rect
         x="86.555557"
         y="126.55555"
         width="12.888889"
         height="12.888889"
         ry="2.3208461"
         style="display:none;fill:#1a1a1a;fill-opacity:1;stroke-width:2.38449"
         id="rect1254-5" />
      <rect
         x="86.555557"
         y="126.55556"
         width="12.888889"
         height="12.888889"
         ry="0.92063493"
         style="display:inline;fill:#1a1a1a;fill-opacity:1;stroke-width:0.920635"
         id="rect1259"
         inkscape:label="rect1259-sharper-corner" />
    </g>
  </g>
  <g
     id="normal"
     transform="translate(2,-14)">
    <g
       id="checkbox-normal"
       transform="translate(-85,-109)"
       inkscape:label="checkbox-normal">
      <rect
         x="85"
         y="125"
         width="16"
         height="16"
         ry="2"
         style="opacity:0;fill:#1a1a1a;fill-opacity:0.987903"
         id="rect1252" />
      <rect
         x="85.888885"
         y="125.88889"
         width="14.222222"
         height="14.222209"
         ry="3.3657019"
         style="display:none;opacity:1;fill:url(#linearGradient1923);fill-opacity:1;stroke-width:2.10679"
         id="rect1839"
         rx="2.7934382" />
      <rect
         x="85.888885"
         y="125.88889"
         width="14.222222"
         height="14.222222"
         ry="1.7777778"
         style="display:inline;fill:url(#linearGradient4);fill-opacity:1;stroke-width:0.888889"
         id="rect1257-2"
         inkscape:label="rect1257-sharper-corner" />
      <rect
         x="87.444443"
         y="127.44444"
         width="11.111111"
         height="11.111111"
         ry="2.0007296"
         style="display:none;opacity:1;fill:#1a1a1a;fill-opacity:1;stroke-width:2.05559"
         id="rect1254" />
      <rect
         x="87.444443"
         y="127.44444"
         width="11.111111"
         height="11.111111"
         ry="0.79365081"
         style="display:inline;fill:#1a1a1a;fill-opacity:1;stroke-width:0.793647"
         id="rect1259-2"
         inkscape:label="rect1259-sharper-corner" />
    </g>
  </g>
  <path
     d="m 87,85 c -1.108,0 -2,0.892 -2,2 v 12 c 0,1.108 0.892,2 2,2 h 12 c 1.108,0 2,-0.892 2,-2 V 87 c 0,-1.108 -0.892,-2 -2,-2 z"
     style="display:inline;fill:#000000;fill-opacity:1"
     id="hint-size"
     inkscape:connector-curvature="0"
     transform="translate(-83,-103)" />
  <path
     d="m 34.942306,4.0019362 c -0.337258,0.011 -0.691713,0.1536 -0.956726,0.4185 l -5.740355,5.7403998 -1.913451,-1.9134 c -0.530026,-0.5301 -1.349982,-0.5635 -1.853655,-0.06 l -0.119591,0.1196 c -0.503673,0.5036 -0.470231,1.3235 0.05979,1.8536 l 2.660893,2.631 c 0.04659,0.072 0.08653,0.1165 0.149489,0.1794 l 0.11958,0.12 c 0.04791,0.044 0.09781,0.085 0.149489,0.1195 0.01272,0.011 0.01692,0.022 0.0299,0.03 0.06416,0.042 0.141106,0.06 0.209285,0.089 0.05967,0.024 0.116906,0.045 0.179385,0.059 0.02157,0.012 0.03807,0.025 0.05979,0.03 0.165282,0.031 0.340191,0.033 0.508261,0 0.03161,-0.011 0.05857,-0.022 0.0897,-0.03 0.22706,-0.061 0.446334,-0.1773 0.627851,-0.3587 l 0.05979,-0.06 c 0.06296,-0.063 0.102901,-0.1075 0.149488,-0.1794 l 6.487797,-6.4579 c 0.530026,-0.5298998 0.563468,-1.3498998 0.05979,-1.8536998 l -0.11959,-0.1195 c -0.251838,-0.2518 -0.559672,-0.3674 -0.89693,-0.3589 z"
     style="fill:#1e1e20;fill-opacity:1"
     id="symbol"
     inkscape:connector-curvature="0" />
  <path
     d="m 24,-18 c -1.108,0 -2,0.892 -2,2 v 12 c 0,1.108 0.892,2 2,2 h 12 c 1.108,0 2,-0.892 2,-2 v -12 c 0,-1.108 -0.892,-2 -2,-2 z"
     style="display:inline;fill:#000000;fill-opacity:1"
     id="hint-stretch-borders"
     inkscape:connector-curvature="0" />
</svg>
