<?xml version="1.0" encoding="UTF-8" standalone="no"?>
<svg
   id="svg2"
   width="225"
   height="240"
   version="1.1"
   sodipodi:docname="tabbar-top-1.svg"
   inkscape:version="1.3.2 (091e20ef0f, 2023-11-25, custom)"
   xmlns:inkscape="http://www.inkscape.org/namespaces/inkscape"
   xmlns:sodipodi="http://sodipodi.sourceforge.net/DTD/sodipodi-0.dtd"
   xmlns:xlink="http://www.w3.org/1999/xlink"
   xmlns="http://www.w3.org/2000/svg"
   xmlns:svg="http://www.w3.org/2000/svg"
   xmlns:rdf="http://www.w3.org/1999/02/22-rdf-syntax-ns#"
   xmlns:cc="http://creativecommons.org/ns#"
   xmlns:dc="http://purl.org/dc/elements/1.1/">
  <metadata
     id="metadata97">
    <rdf:RDF>
      <cc:Work
         rdf:about="">
        <dc:format>image/svg+xml</dc:format>
        <dc:type
           rdf:resource="http://purl.org/dc/dcmitype/StillImage" />
      </cc:Work>
    </rdf:RDF>
  </metadata>
  <sodipodi:namedview
     pagecolor="#505050"
     bordercolor="#666666"
     inkscape:document-rotation="0"
     borderopacity="1"
     objecttolerance="10"
     gridtolerance="10"
     guidetolerance="10"
     inkscape:pageopacity="0"
     inkscape:pageshadow="2"
     inkscape:window-width="1366"
     inkscape:window-height="725"
     id="namedview95"
     showgrid="true"
     inkscape:zoom="1.5475731"
     inkscape:cx="22.939142"
     inkscape:cy="212.91401"
     inkscape:window-x="0"
     inkscape:window-y="22"
     inkscape:window-maximized="1"
     inkscape:current-layer="svg2"
     inkscape:pagecheckerboard="0"
     inkscape:showpageshadow="0"
     inkscape:deskcolor="#505050">
    <inkscape:grid
       id="grid1"
       units="px"
       originx="0"
       originy="0"
       spacingx="0.5"
       spacingy="0.5"
       empcolor="#0099e5"
       empopacity="0.30196078"
       color="#0099e5"
       opacity="0.14901961"
       empspacing="5"
       dotted="false"
       gridanglex="30"
       gridanglez="30"
       visible="true" />
  </sodipodi:namedview>
  <defs
     id="defs79">
    <linearGradient
       id="linearGradient925">
      <stop
         offset="0"
         style="stop-color:#00ccff;stop-opacity:1"
         id="stop920" />
      <stop
         offset="1"
         style="stop-color:#7844ff;stop-opacity:1"
         id="stop922" />
    </linearGradient>
    <linearGradient
       id="linearGradient1016"
       x1="26"
       x2="82"
       y1="39.016"
       y2="39.016"
       gradientTransform="translate(364.98305,-121.3886)"
       gradientUnits="userSpaceOnUse"
       xlink:href="#linearGradient991" />
    <linearGradient
       id="linearGradient991">
      <stop
         id="stop987"
         style="stop-color:#00ccff;stop-opacity:1"
         offset="0" />
      <stop
         id="stop989"
         style="stop-color:#7844ff;stop-opacity:1"
         offset="1" />
    </linearGradient>
    <linearGradient
       id="linearGradient908"
       x1="407"
       x2="407"
       y1="269.35999"
       y2="363.35999"
       gradientUnits="userSpaceOnUse"
       xlink:href="#linearGradient925" />
    <linearGradient
       id="linearGradient910"
       x1="32.998001"
       x2="126.998"
       y1="363.362"
       y2="363.362"
       gradientUnits="userSpaceOnUse"
       xlink:href="#linearGradient925" />
    <linearGradient
       id="linearGradient912"
       x1="407"
       x2="407"
       y1="269.35999"
       y2="363.35999"
       gradientUnits="userSpaceOnUse"
       xlink:href="#linearGradient925" />
    <linearGradient
       id="linearGradient914"
       x1="218"
       x2="218"
       y1="269.35999"
       y2="363.35999"
       gradientUnits="userSpaceOnUse"
       xlink:href="#linearGradient925" />
    <linearGradient
       id="linearGradient916"
       x1="32.998001"
       x2="126.998"
       y1="358.362"
       y2="358.362"
       gradientUnits="userSpaceOnUse"
       xlink:href="#linearGradient925" />
    <linearGradient
       id="linearGradient918"
       x1="218"
       x2="218"
       y1="269.35999"
       y2="363.35999"
       gradientUnits="userSpaceOnUse"
       xlink:href="#linearGradient925" />
    <linearGradient
       id="linearGradient920"
       x1="269"
       x2="363"
       y1="432.35999"
       y2="432.35999"
       gradientUnits="userSpaceOnUse"
       xlink:href="#linearGradient925"
       gradientTransform="matrix(1,0,0,0.6669413,-236.00001,71.333053)" />
    <linearGradient
       id="linearGradient922"
       x1="33"
       x2="127"
       y1="358.35999"
       y2="358.35999"
       gradientUnits="userSpaceOnUse"
       xlink:href="#linearGradient925"
       gradientTransform="matrix(1,0,0,0.666442,0,120.86756)" />
    <linearGradient
       id="linearGradient924"
       x1="269"
       x2="363"
       y1="432.35999"
       y2="432.35999"
       gradientUnits="userSpaceOnUse"
       xlink:href="#linearGradient925"
       gradientTransform="matrix(1,0,0,0.6669413,-236.00001,71.333053)" />
    <linearGradient
       id="linearGradient932"
       x1="276"
       x2="370"
       y1="227.36"
       y2="227.36"
       gradientUnits="userSpaceOnUse"
       xlink:href="#linearGradient925" />
    <linearGradient
       id="linearGradient934"
       x1="33"
       x2="127"
       y1="362.35999"
       y2="362.35999"
       gradientUnits="userSpaceOnUse"
       xlink:href="#linearGradient925" />
    <linearGradient
       id="linearGradient936"
       x1="276"
       x2="370"
       y1="226.36"
       y2="226.36"
       gradientUnits="userSpaceOnUse"
       xlink:href="#linearGradient925" />
  </defs>
  <rect
     id="hint-tile-center"
     style="opacity:1;fill:#66ff00"
     width="40"
     height="40"
     x="0"
     y="-40" />
  <g
     id="north-active-tab-top"
     style="opacity:0.8"
     transform="matrix(1,0,0,0.99998568,36.00001,-138.35507)">
    <path
       id="rect3003"
       style="opacity:1;fill:url(#linearGradient922);fill-opacity:1;stroke-width:0.816359"
       d="m 40,360.36162 h 80 v 1.99931 H 40 Z" />
  </g>
  <g
     id="north-active-tab-topleft"
     style="opacity:0.8"
     transform="matrix(1,0,0,0.99925135,36.00001,-138.08895)">
    <rect
       id="rect3073-5"
       style="opacity:0.00100002;stroke-width:0.68312"
       width="7.00002"
       height="1.9999408"
       x="32.999981"
       y="360.36005" />
    <path
       id="rect3542"
       style="opacity:1;fill:url(#linearGradient920);fill-opacity:1;stroke-width:0.816664"
       d="m 32.999981,360.36005 9e-6,0.99998 -9e-6,1.00083 7.000009,-4.4e-4 v -1.99821 z"
       sodipodi:nodetypes="cccccc" />
  </g>
  <g
     id="north-active-tab-topright"
     style="opacity:0.8"
     transform="matrix(1,0,0,0.99925135,36.00001,-138.08895)">
    <rect
       id="rect3073-45"
       style="opacity:0.00100002;stroke-width:0.683108"
       width="7.0000401"
       height="1.9998621"
       x="120"
       y="360.36014" />
    <path
       id="rect3542-9"
       style="opacity:1;fill:url(#linearGradient924);fill-opacity:1;stroke-width:0.816664"
       d="m 120.00002,360.36361 v 1.9995 l 7.00002,-0.003 -2e-5,-0.9993 2e-5,-1.00055 z"
       sodipodi:nodetypes="cccccc" />
  </g>
  <rect
     id="north-active-tab-left"
     style="opacity:0.001"
     width="10"
     height="12"
     x="66"
     y="224" />
  <rect
     id="north-active-tab-center"
     style="opacity:0.001"
     width="80"
     height="12"
     x="76"
     y="224" />
  <rect
     id="north-active-tab-right"
     style="opacity:0.001"
     width="10"
     height="12"
     x="156"
     y="224" />
  <rect
     id="north-active-tab-bottomright"
     style="opacity:0.001"
     width="10"
     height="4"
     x="156"
     y="236" />
  <rect
     id="north-active-tab-bottom"
     style="opacity:0.001"
     width="80"
     height="4"
     x="76"
     y="236" />
  <rect
     id="north-active-tab-bottomleft"
     style="opacity:0.001"
     width="10"
     height="4"
     x="66"
     y="236" />
  <rect
     id="north-active-tab-hint-left-margin"
     style="opacity:1;fill:#66ff00"
     width="6"
     height="5"
     x="66"
     y="227" />
  <rect
     id="north-active-tab-hint-right-margin"
     style="opacity:1;fill:#66ff00"
     width="6"
     height="5"
     x="160"
     y="227" />
  <rect
     id="north-active-tab-hint-top-margin"
     style="opacity:1;fill:#66ff00;stroke-width:0.866025"
     width="5"
     height="6"
     x="114"
     y="222" />
  <rect
     id="north-active-tab-hint-bottom-margin"
     style="opacity:1;fill:#66ff00;stroke-width:1.22474"
     width="5"
     height="6"
     x="114"
     y="234" />
  <rect
     id="west-active-tab-bottom"
     style="opacity:0.001"
     width="10"
     height="12"
     x="-155.7"
     y="209"
     transform="rotate(-90)" />
  <rect
     id="west-active-tab-center"
     style="opacity:0.001"
     width="80"
     height="12"
     x="-145.7"
     y="209"
     transform="rotate(-90)" />
  <rect
     id="west-active-tab-top"
     style="opacity:0.001"
     width="10"
     height="12"
     x="-66"
     y="209"
     transform="rotate(-90)" />
  <rect
     id="west-active-tab-topright"
     style="opacity:0.001"
     width="10"
     height="4"
     x="-66"
     y="221"
     transform="rotate(-90)" />
  <rect
     id="west-active-tab-right"
     style="opacity:0.001"
     width="80"
     height="4"
     x="-145.7"
     y="221"
     transform="rotate(-90)" />
  <rect
     id="west-active-tab-bottomright"
     style="opacity:0.001"
     width="10"
     height="4"
     x="-155.7"
     y="221"
     transform="rotate(-90)" />
  <rect
     id="west-active-tab-hint-bottom-margin"
     style="opacity:1;fill:#66ff00"
     width="6"
     height="5"
     x="-156"
     y="212"
     transform="rotate(-90)" />
  <rect
     id="west-active-tab-hint-top-margin"
     style="opacity:1;fill:#66ff00"
     width="6"
     height="5"
     x="-62"
     y="212"
     transform="rotate(-90)" />
  <g
     id="west-active-tab-left"
     style="opacity:0.8"
     transform="matrix(0,1,-0.66661476,0,449.55614,26.0022)">
    <path
       id="rect3003-5-6"
       style="opacity:1;fill:url(#linearGradient910);fill-opacity:1"
       d="m 40,359.36218 h 80 v 3 H 40 Z" />
  </g>
  <rect
     id="west-active-tab-hint-left-margin"
     style="opacity:1;fill:#66ff00;stroke-width:0.866025"
     width="5"
     height="6"
     x="-102"
     y="208"
     transform="rotate(-90)" />
  <rect
     id="west-active-tab-hint-right-margin"
     style="opacity:1;fill:#66ff00;stroke-width:1.22474"
     width="5"
     height="6"
     x="-102"
     y="219"
     transform="rotate(-90)" />
  <rect
     id="east-active-tab-top"
     style="opacity:0.001"
     width="10"
     height="12"
     x="56"
     y="-16"
     transform="rotate(90)" />
  <rect
     id="east-active-tab-center"
     style="opacity:0.001"
     width="80"
     height="12"
     x="66"
     y="-16"
     transform="rotate(90)" />
  <rect
     id="east-active-tab-bottom"
     style="opacity:0.001"
     width="10"
     height="12"
     x="146"
     y="-16"
     transform="rotate(90)" />
  <rect
     id="east-active-tab-bottomleft"
     style="opacity:0.001"
     width="10"
     height="4"
     x="146"
     y="-4"
     transform="rotate(90)" />
  <rect
     id="east-active-tab-left"
     style="opacity:0.001"
     width="80"
     height="4"
     x="66"
     y="-4"
     transform="rotate(90)" />
  <rect
     id="east-active-tab-topleft"
     style="opacity:0.001"
     width="10"
     height="4"
     x="56"
     y="-4"
     transform="rotate(90)" />
  <rect
     id="east-active-tab-hint-top-margin"
     style="opacity:1;fill:#66ff00"
     width="6"
     height="5"
     x="56"
     y="-13"
     transform="rotate(90)" />
  <rect
     id="east-active-tab-hint-bottom-margin"
     style="opacity:1;fill:#66ff00"
     width="6"
     height="5"
     x="150"
     y="-13"
     transform="rotate(90)" />
  <g
     id="east-active-tab-right"
     style="opacity:0.8"
     transform="matrix(0,1,-0.66665429,0,256.5703,26.0022)">
    <path
       id="rect3003-5"
       style="opacity:1;fill:url(#linearGradient916);fill-opacity:1"
       d="m 40,359.36218 h 80 v 3 H 40 Z" />
  </g>
  <g
     id="east-active-tab-topright"
     style="opacity:0.8"
     transform="matrix(0,1,-0.66616474,0,256.39291,26.002195)">
    <rect
       id="rect3073-5-5"
       style="opacity:0.00100002;stroke-width:0.836761"
       width="7.0016999"
       height="3"
       x="32.998299"
       y="359.35999" />
    <path
       id="rect3542-0"
       style="opacity:1;fill:url(#linearGradient914);fill-opacity:1"
       transform="matrix(0,-1.0007349,1,0,-236.36218,576.51945)"
       d="m 215.5,269.36133 -1.50006,-8.5e-4 6e-5,7.00085 h 2.99805 l 0.002,-7.00085 -1.49988,8.5e-4 z"
       sodipodi:nodetypes="ccccccc" />
  </g>
  <g
     id="east-active-tab-bottomright"
     style="opacity:0.8"
     transform="matrix(0,1,-0.66616474,0,256.39291,26.002195)">
    <rect
       id="rect3073-45-07"
       style="opacity:0.00100002;stroke-width:0.836558"
       width="6.9983001"
       height="3"
       x="120"
       y="359.35999" />
    <path
       id="rect3542-9-4"
       style="opacity:1;fill:url(#linearGradient918);fill-opacity:1"
       transform="matrix(0,-1.0007349,1,0,-236.36218,576.51945)"
       d="m 214,356.36133 -1e-5,6.99915 1.50001,8.5e-4 1.49999,-8.5e-4 -0.002,-6.99915 z"
       sodipodi:nodetypes="cccccc" />
  </g>
  <rect
     id="east-active-tab-hint-right-margin"
     style="opacity:1;fill:#66ff00;stroke-width:0.866025"
     width="5"
     height="6"
     x="97"
     y="-17"
     transform="rotate(90)" />
  <rect
     id="east-active-tab-hint-left-margin"
     style="opacity:1;fill:#66ff00;stroke-width:1.22474"
     width="5"
     height="6"
     x="97"
     y="-6"
     transform="rotate(90)" />
  <rect
     id="south-active-tab-right"
     style="opacity:0.001"
     width="10"
     height="12"
     x="-173"
     y="-16"
     transform="scale(-1)" />
  <rect
     id="south-active-tab-center"
     style="opacity:0.001"
     width="80"
     height="12"
     x="-163"
     y="-16"
     transform="scale(-1)" />
  <rect
     id="south-active-tab-left"
     style="opacity:0.001"
     width="10"
     height="12"
     x="-83"
     y="-16"
     transform="scale(-1)" />
  <rect
     id="south-active-tab-topleft"
     style="opacity:0.001"
     width="10"
     height="4"
     x="-83"
     y="-4"
     transform="scale(-1)" />
  <rect
     id="south-active-tab-top"
     style="opacity:0.001"
     width="80"
     height="4"
     x="-163"
     y="-4"
     transform="scale(-1)" />
  <rect
     id="south-active-tab-topright"
     style="opacity:0.001"
     width="10"
     height="4"
     x="-173"
     y="-4"
     transform="scale(-1)" />
  <rect
     id="south-focus-hint-right-margin"
     style="opacity:1;fill:#66ff00"
     width="6"
     height="5"
     x="-173"
     y="-13"
     transform="scale(-1)" />
  <rect
     id="south-focus-hint-left-margin"
     style="opacity:1;fill:#66ff00"
     width="6"
     height="5"
     x="-79"
     y="-13"
     transform="scale(-1)" />
  <g
     id="south-active-tab-bottom"
     style="opacity:0.8"
     transform="matrix(1,0,0,0.6668348,43,-224.63371)">
    <path
       id="rect3003-6"
       style="opacity:1;fill:url(#linearGradient934);fill-opacity:1"
       d="m 40,359.36218 h 80 v 3 H 40 Z" />
  </g>
  <rect
     id="south-focus-hint-bottom-margin"
     style="opacity:1;fill:#66ff00;stroke-width:0.866025"
     width="5"
     height="6"
     x="-119"
     y="-17"
     transform="scale(-1)" />
  <rect
     id="south-focus-hint-top-margin"
     style="opacity:1;fill:#66ff00;stroke-width:1.22474"
     width="5"
     height="6"
     x="-119"
     y="-6"
     transform="scale(-1)" />
  <g
     id="south-active-tab-bottomleft"
     style="opacity:0.8"
     transform="matrix(1,0,0,0.66634511,43,-224.45626)">
    <rect
       id="rect3073-5-7"
       style="opacity:0.00100002;stroke-width:0.83666"
       width="7"
       height="3"
       x="33"
       y="359.35999" />
    <path
       id="rect3542-3"
       style="opacity:1;fill:url(#linearGradient936)"
       transform="matrix(1,0,0,1.0007349,-243,134.83306)"
       d="m 276,224.36204 v 1.49929 1.49851 l 7,0.001 v -3 z"
       sodipodi:nodetypes="cccccc" />
  </g>
  <g
     id="south-active-tab-bottomright"
     style="opacity:0.8"
     transform="matrix(1,0,0,0.6663485,-200,-136.49951)">
    <rect
       id="rect3073-45-6"
       style="opacity:0.00100002"
       width="10"
       height="3"
       x="363"
       y="227.36" />
    <rect
       id="rect3073-45-0"
       style="opacity:0.00100002;stroke-width:0.83666"
       width="7"
       height="3"
       x="363"
       y="227.36" />
    <path
       id="rect3542-9-8"
       style="opacity:1;fill:url(#linearGradient932);fill-opacity:1"
       transform="matrix(1,0,0,1.0007298,0,2.8342025)"
       d="m 368.5,224.36133 -5.5,0.004 v 2.9961 l 7,-0.002 v -1.49844 -1.49937 z"
       sodipodi:nodetypes="ccccccc" />
  </g>
  <g
     id="west-active-tab-topleft"
     style="opacity:0.8"
     transform="matrix(0,1,-0.66612524,0,449.37876,26.002195)">
    <rect
       id="rect3073-5-5-1"
       style="opacity:0.00100002;stroke-width:0.836711"
       width="7.0008502"
       height="3"
       x="32.999149"
       y="359.35999" />
    <path
       id="rect3542-0-7"
       style="opacity:1;fill:url(#linearGradient912);fill-opacity:1"
       transform="matrix(0,-1.0007349,1,0,-236.36218,770.66226)"
       d="m 409.5,269.36133 h -1.49757 l -0.002,7 h 2.99805 l 0.002,-7 h -1.50018 z"
       sodipodi:nodetypes="ccccccc" />
  </g>
  <g
     id="west-active-tab-bottomleft"
     style="opacity:0.8"
     transform="matrix(0,1,-0.66612524,0,449.37876,26.002195)">
    <rect
       id="rect3073-45-07-7"
       style="opacity:0.00100002;stroke-width:0.836558"
       width="6.9983001"
       height="3"
       x="120"
       y="359.35999" />
    <path
       id="rect3542-9-4-6"
       style="opacity:1;fill:url(#linearGradient908);fill-opacity:1"
       transform="matrix(0,-1.0007349,1,0,-236.36218,770.66226)"
       d="m 408,356.36133 0.002,6.99915 1.49757,8.5e-4 1.50023,-8.5e-4 -0.002,-6.99915 z"
       sodipodi:nodetypes="cccccc" />
  </g>
  <rect
     id="hint-stretch-borders"
     style="opacity:1;fill:#66ff00"
     width="3"
     height="3"
     x="45"
     y="-3" />
</svg>
