<?xml version="1.0" encoding="UTF-8" standalone="no"?>
<svg
   width="18"
   height="18"
   viewBox="0 0 18 18"
   version="1.1"
   inkscape:version="1.3.2 (091e20ef0f, 2023-11-25, custom)"
   sodipodi:docname="close.svg"
   id="svg824"
   xmlns:inkscape="http://www.inkscape.org/namespaces/inkscape"
   xmlns:sodipodi="http://sodipodi.sourceforge.net/DTD/sodipodi-0.dtd"
   xmlns:xlink="http://www.w3.org/1999/xlink"
   xmlns="http://www.w3.org/2000/svg"
   xmlns:svg="http://www.w3.org/2000/svg">
  <defs
     id="defs5">
    <linearGradient
       inkscape:collect="always"
       xlink:href="#linearGradient15401"
       id="linearGradient15365"
       gradientUnits="userSpaceOnUse"
       gradientTransform="matrix(0,1.000005,-0.99999503,0,943.23402,-30.359755)"
       x1="131.26018"
       y1="456.43948"
       x2="842.33344"
       y2="456.43948" />
    <linearGradient
       inkscape:collect="always"
       id="linearGradient15401">
      <stop
         style="stop-color:#e5f230;stop-opacity:1"
         offset="0"
         id="stop15397" />
      <stop
         style="stop-color:#54ff64;stop-opacity:1;"
         offset="1"
         id="stop15399" />
    </linearGradient>
  </defs>
  <sodipodi:namedview
     id="namedview6"
     pagecolor="#424242"
     bordercolor="#666666"
     borderopacity="1.0"
     inkscape:pageshadow="2"
     inkscape:pageopacity="0"
     inkscape:pagecheckerboard="0"
     showgrid="false"
     inkscape:zoom="32"
     inkscape:cx="15.140625"
     inkscape:cy="9.796875"
     inkscape:window-width="1440"
     inkscape:window-height="742"
     inkscape:window-x="0"
     inkscape:window-y="32"
     inkscape:window-maximized="1"
     inkscape:current-layer="svg824"
     inkscape:showpageshadow="2"
     inkscape:deskcolor="#d1d1d1" />
  <g
     id="active-center"
     transform="matrix(0.01973972,0,0,-0.01973963,-0.60933511,18.009922)">
    <path
       id="path4094"
       style="fill:#f5f5ef;fill-opacity:0;fill-rule:evenodd;stroke:none;stroke-width:0.824346"
       d="m 486.80602,0.50289721 c 251.8009,0 455.9293,204.12991279 455.9293,455.93532279 0,251.80647 -204.1284,455.93604 -455.9293,455.93604 -251.80831,0 -455.937552,-204.12957 -455.937552,-455.93604 0,-251.80541 204.129242,-455.93532279 455.937552,-455.93532279"
       inkscape:connector-curvature="0" />
    <path
       id="path18-6-3"
       style="fill:url(#linearGradient15365);fill-opacity:1;fill-rule:evenodd;stroke:none;stroke-width:1.67833"
       d="m 191.26889,811.97027 c -15.10727,0 -30.27915,-5.6831 -41.74196,-17.14212 l -1.11311,-1.11313 c -22.92561,-22.92717 -22.92561,-60.45487 0,-83.37302 L 402.31621,456.4383 148.41382,202.5346 c -22.92562,-22.92718 -22.92562,-60.45037 0,-83.37303 l 1.11311,-1.11312 c 22.92562,-22.91816 60.44655,-22.91816 83.3726,0 l 253.9024,253.9037 253.9024,-253.9037 c 22.92064,-22.931593 60.45197,-22.931593 83.3726,0 l 1.11312,1.11312 c 22.9256,22.92708 22.9256,60.44595 0,83.37303 l -253.9024,253.9037 253.9024,253.9037 c 22.92561,22.92257 22.92561,60.44144 0,83.37302 l -1.11312,1.11313 c -22.92064,22.92718 -60.45195,22.91818 -83.3726,0 l -253.9024,-253.9037 -253.9024,253.9037 c -11.45964,11.45902 -26.52337,17.14212 -41.63064,17.14212 z" />
  </g>
</svg>
