<?xml version="1.0" encoding="UTF-8" standalone="no"?>
<svg
   width="18"
   height="18"
   viewBox="0 0 18 18"
   version="1.1"
   inkscape:version="1.3.2 (091e20ef0f, 2023-11-25, custom)"
   sodipodi:docname="close-pressed.svg"
   id="svg824"
   xmlns:inkscape="http://www.inkscape.org/namespaces/inkscape"
   xmlns:sodipodi="http://sodipodi.sourceforge.net/DTD/sodipodi-0.dtd"
   xmlns:xlink="http://www.w3.org/1999/xlink"
   xmlns="http://www.w3.org/2000/svg"
   xmlns:svg="http://www.w3.org/2000/svg">
  <defs
     id="defs5">
    <linearGradient
       inkscape:collect="always"
       xlink:href="#linearGradient9185"
       id="linearGradient1103"
       x1="-250.56828"
       y1="437.94778"
       x2="370.09445"
       y2="437.94778"
       gradientUnits="userSpaceOnUse"
       gradientTransform="matrix(0,-0.02089616,42.914431,0,-18734.517,439.19655)" />
    <linearGradient
       inkscape:collect="always"
       id="linearGradient9185">
      <stop
         style="stop-color:#e5f230;stop-opacity:0.08235294;"
         offset="0"
         id="stop9181" />
      <stop
         style="stop-color:#9cf84a;stop-opacity:1;"
         offset="0.5"
         id="stop9187" />
      <stop
         style="stop-color:#54ff64;stop-opacity:0.08235294;"
         offset="1"
         id="stop9183" />
    </linearGradient>
    <linearGradient
       inkscape:collect="always"
       xlink:href="#linearGradient9185"
       id="linearGradient1101"
       x1="-250.56943"
       y1="437.94772"
       x2="370.09448"
       y2="437.94772"
       gradientUnits="userSpaceOnUse"
       gradientTransform="matrix(0,-0.02089616,42.914431,0,-18734.515,439.19655)" />
    <radialGradient
       inkscape:collect="always"
       xlink:href="#linearGradient2148"
       id="radialGradient2261"
       gradientUnits="userSpaceOnUse"
       gradientTransform="matrix(41.448702,0,0,0.91462381,-1639.6313,414.62485)"
       cx="41"
       cy="25.500008"
       fx="41"
       fy="25.500008"
       r="11" />
    <linearGradient
       inkscape:collect="always"
       id="linearGradient2148">
      <stop
         style="stop-color:#e5f230;stop-opacity:1;"
         offset="0"
         id="stop2144" />
      <stop
         style="stop-color:#72f830;stop-opacity:0.62352943;"
         offset="0.5"
         id="stop7358" />
      <stop
         style="stop-color:#00ff30;stop-opacity:0;"
         offset="1"
         id="stop2146" />
    </linearGradient>
    <radialGradient
       inkscape:collect="always"
       xlink:href="#linearGradient7318"
       id="radialGradient7312"
       gradientUnits="userSpaceOnUse"
       gradientTransform="matrix(41.448706,0,0,0.91462384,-1639.6357,-461.27074)"
       cx="41"
       cy="25.500008"
       fx="41"
       fy="25.500008"
       r="11"
       spreadMethod="pad" />
    <linearGradient
       inkscape:collect="always"
       id="linearGradient7318">
      <stop
         style="stop-color:#e5f230;stop-opacity:1;"
         offset="0"
         id="stop7314" />
      <stop
         style="stop-color:#72f830;stop-opacity:0.81176472;"
         offset="0.5"
         id="stop1030" />
      <stop
         style="stop-color:#00ff30;stop-opacity:0;"
         offset="1"
         id="stop7316" />
    </linearGradient>
    <radialGradient
       inkscape:collect="always"
       xlink:href="#linearGradient2148"
       id="radialGradient1"
       gradientUnits="userSpaceOnUse"
       gradientTransform="matrix(41.448702,0,0,0.91462381,-1639.6313,414.62485)"
       cx="41"
       cy="25.500008"
       fx="41"
       fy="25.500008"
       r="11" />
    <radialGradient
       inkscape:collect="always"
       xlink:href="#linearGradient2148"
       id="radialGradient6"
       gradientUnits="userSpaceOnUse"
       gradientTransform="matrix(41.448702,0,0,0.91462381,-1639.6313,414.62485)"
       cx="41"
       cy="25.500008"
       fx="41"
       fy="25.500008"
       r="11" />
    <radialGradient
       inkscape:collect="always"
       xlink:href="#linearGradient2148"
       id="radialGradient10"
       gradientUnits="userSpaceOnUse"
       gradientTransform="matrix(41.448702,0,0,0.91462381,-1639.6313,414.62485)"
       cx="41"
       cy="25.500008"
       fx="41"
       fy="25.500008"
       r="11" />
    <linearGradient
       inkscape:collect="always"
       xlink:href="#linearGradient9185"
       id="linearGradient1"
       gradientUnits="userSpaceOnUse"
       gradientTransform="matrix(0,-0.02089616,42.914431,0,-18734.515,439.19655)"
       x1="-250.56943"
       y1="437.94772"
       x2="370.09448"
       y2="437.94772" />
  </defs>
  <sodipodi:namedview
     id="namedview6"
     pagecolor="#424242"
     bordercolor="#666666"
     borderopacity="1.0"
     inkscape:pageshadow="2"
     inkscape:pageopacity="0"
     inkscape:pagecheckerboard="0"
     showgrid="false"
     inkscape:zoom="46.25"
     inkscape:cx="5.7189189"
     inkscape:cy="7.5135135"
     inkscape:window-width="1440"
     inkscape:window-height="742"
     inkscape:window-x="0"
     inkscape:window-y="32"
     inkscape:window-maximized="1"
     inkscape:current-layer="svg824"
     inkscape:showpageshadow="2"
     inkscape:deskcolor="#d1d1d1" />
  <g
     id="pressed-center"
     transform="matrix(0.01973961,0,0,0.89455511,7.8202998,-382.76841)">
    <path
       id="path4094-2"
       style="fill:#f5f5ef;fill-opacity:0;fill-rule:evenodd;stroke:none;stroke-width:0.122454"
       d="m 59.766611,448.0086 c 251.802029,0 455.931629,-4.50441 455.931629,-10.06085 0,-5.55646 -204.1296,-10.06087 -455.931629,-10.06087 -251.809721,0 -455.939791,4.50441 -455.939791,10.06087 0,5.55644 204.13007,10.06085 455.939791,10.06085"
       inkscape:connector-curvature="0" />
    <path
       inkscape:connector-curvature="0"
       d="m 269.62231,444.11897 -489.52234,-10.80211 c -18.94887,-0.41804 -18.94887,-1.10198 0,-1.52024 l 0.91407,-0.02 c 18.94544,-0.41815 49.94511,-0.41815 68.89011,-1.5e-4 l 489.52062,10.80215 c 18.94929,0.41814 18.94929,1.10211 0,1.52013 l -0.90549,0.0202 c -18.9493,0.41805 -49.9451,0.41805 -68.89397,0"
       style="display:none;fill:url(#linearGradient1103);fill-opacity:1;fill-rule:evenodd;stroke:none;stroke-width:0.206068"
       id="path18-6-9"
       inkscape:label="path18-6-9" />
    <path
       inkscape:connector-curvature="0"
       d="m -219.89703,442.57853 489.52234,-10.80202 c 18.94329,-0.41802 49.94467,-0.41802 68.89439,0 l 0.9055,0.0201 c 18.94973,0.41814 18.94973,1.10208 0,1.52013 l -489.52191,10.8021 c -18.94457,0.41818 -49.94468,0.41818 -68.88968,0 l -0.91407,-0.0201 c -18.94931,-0.41814 -18.94931,-1.10212 0,-1.52026"
       style="display:none;fill:url(#linearGradient1);fill-opacity:1;fill-rule:evenodd;stroke:none;stroke-width:0.206068"
       id="path20-2-1" />
    <ellipse
       id="path2734-2"
       style="display:none;fill:url(#radialGradient10);fill-opacity:1;fill-rule:nonzero;stroke:none;stroke-width:6.62539"
       cx="59.763081"
       cy="437.94778"
       rx="455.9357"
       ry="10.060861" />
    <ellipse
       id="path2734-2-3"
       style="display:none;fill:url(#radialGradient7312);fill-opacity:1;fill-rule:nonzero;stroke:none;stroke-width:6.62539"
       cx="59.762531"
       cy="-437.94775"
       rx="455.9357"
       ry="10.060861"
       transform="scale(1,-1)" />
    <ellipse
       id="ellipse11086"
       style="display:none;fill:url(#radialGradient2261);fill-opacity:1;fill-rule:nonzero;stroke:none;stroke-width:6.62539"
       cx="59.763081"
       cy="437.94778"
       rx="455.9357"
       ry="10.060861" />
    <path
       id="path5"
       style="display:inline;fill:url(#linearGradient1101);fill-opacity:1;fill-rule:evenodd;stroke:none;stroke-width:0.206068"
       d="m -184.52693,431.46324 c -12.48621,2e-5 -24.96577,0.10464 -34.43848,0.31371 l -0.97134,0.0195 c -18.94885,0.41826 -18.94885,1.10183 0,1.51987 l 209.898077,4.63169 -209.898077,4.62975 c -18.94929,0.41814 -18.94929,1.10367 0,1.52181 l 0.97134,0.0195 c 18.94498,0.41818 49.9324,0.41818 68.87695,0 l 209.898074,-4.6317 209.809776,4.6317 c 18.94885,0.41805 49.92766,0.41805 68.87694,0 l 0.97134,-0.0195 c 18.94927,-0.41802 18.94927,-1.10367 0,-1.52181 L 129.5696,437.948 339.46767,433.31631 c 18.94971,-0.41805 18.94971,-1.10173 0,-1.51987 l -0.97134,-0.0195 c -18.9497,-0.41802 -49.93367,-0.41802 -68.87694,0 L 59.809614,436.4067 -150.08846,431.77695 c -9.47249,-0.209 -21.95226,-0.31373 -34.43847,-0.31371 z" />
    <ellipse
       id="ellipse1"
       style="display:inline;fill:url(#radialGradient1);fill-opacity:1;fill-rule:nonzero;stroke:none;stroke-width:6.62539"
       cx="59.763081"
       cy="437.94778"
       rx="455.9357"
       ry="10.060861" />
  </g>
</svg>
