<?xml version="1.0" encoding="UTF-8" standalone="no"?>
<svg
   width="18"
   height="18"
   viewBox="0 0 18 18"
   version="1.1"
   id="svg4"
   inkscape:version="1.3.2 (091e20ef0f, 2023-11-25, custom)"
   sodipodi:docname="minimize-inactive.svg"
   xmlns:inkscape="http://www.inkscape.org/namespaces/inkscape"
   xmlns:sodipodi="http://sodipodi.sourceforge.net/DTD/sodipodi-0.dtd"
   xmlns="http://www.w3.org/2000/svg"
   xmlns:svg="http://www.w3.org/2000/svg">
  <defs
     id="defs5" />
  <sodipodi:namedview
     id="namedview6"
     pagecolor="#424242"
     bordercolor="#666666"
     borderopacity="1.0"
     inkscape:pageshadow="2"
     inkscape:pageopacity="0"
     inkscape:pagecheckerboard="0"
     showgrid="false"
     inkscape:zoom="22.627417"
     inkscape:cx="-1.0827573"
     inkscape:cy="16.285553"
     inkscape:window-width="1440"
     inkscape:window-height="742"
     inkscape:window-x="0"
     inkscape:window-y="32"
     inkscape:window-maximized="1"
     inkscape:current-layer="svg4"
     inkscape:showpageshadow="2"
     inkscape:deskcolor="#d1d1d1" />
  <g
     id="inactive-center"
     transform="matrix(0.01973963,0,0,-0.01973971,-0.00896823,17.637769)">
    <path
       id="path4199"
       style="fill:#5b5c63;fill-opacity:0;fill-rule:evenodd;stroke:none;stroke-width:1.06669"
       d="m 456.38966,-18.350401 c 251.80614,0 455.93569,204.126011 455.93569,455.935641 0,251.80217 -204.12955,455.93167 -455.93569,455.93167 -251.80541,0 -455.93532085,-204.1295 -455.93532085,-455.93167 0,-251.80963 204.12991085,-455.935641 455.93532085,-455.935641"
       inkscape:connector-curvature="0" />
    <path
       inkscape:connector-curvature="0"
       style="color:#000000;font-style:normal;font-variant:normal;font-weight:normal;font-stretch:normal;font-size:medium;line-height:normal;font-family:Sans;-inkscape-font-specification:Sans;text-indent:0;text-align:start;text-decoration:none;text-decoration-line:none;letter-spacing:normal;word-spacing:normal;text-transform:none;writing-mode:lr-tb;direction:ltr;baseline-shift:baseline;text-anchor:start;display:inline;overflow:visible;visibility:visible;fill:#5b5c63;fill-opacity:1;fill-rule:nonzero;stroke:none;stroke-width:30.696;marker:none;enable-background:accumulate"
       d="M 842.42995,646.88905 499.30858,84.083201 c -21.18499,-32.932202 -59.63462,-32.7944 -80.73461,0 L 75.452591,646.88905 c -63.384521,103.96924 2.94957,168.43221 40.367289,168.84176 h 343.12139 343.12138 c 63.38866,0 79.60027,-104.49141 40.3673,-168.84176 z m -383.50476,46.96 -288.59339,-4.2e-4 288.58926,-448.41367 288.59338,448.41494 z"
       id="path3787-74-1-3"
       sodipodi:nodetypes="sccsscssccccc" />
  </g>
</svg>
