<?xml version="1.0" encoding="UTF-8" standalone="no"?>
<svg
   width="24"
   height="24"
   viewBox="0 0 24 24"
   version="1.1"
   id="svg1"
   sodipodi:docname="radio-mixed-symbolic.svg"
   inkscape:version="1.3.2 (091e20ef0f, 2023-11-25, custom)"
   xmlns:inkscape="http://www.inkscape.org/namespaces/inkscape"
   xmlns:sodipodi="http://sodipodi.sourceforge.net/DTD/sodipodi-0.dtd"
   xmlns="http://www.w3.org/2000/svg"
   xmlns:svg="http://www.w3.org/2000/svg">
  <defs
     id="defs1" />
  <sodipodi:namedview
     id="namedview1"
     pagecolor="#ffffff"
     bordercolor="#666666"
     borderopacity="1.0"
     inkscape:showpageshadow="2"
     inkscape:pageopacity="0.0"
     inkscape:pagecheckerboard="0"
     inkscape:deskcolor="#d1d1d1"
     inkscape:zoom="43.31029"
     inkscape:cx="10.228516"
     inkscape:cy="11.41761"
     inkscape:current-layer="svg1"
     showgrid="true">
    <inkscape:grid
       id="grid1"
       units="px"
       originx="0"
       originy="0"
       spacingx="0.5"
       spacingy="0.5"
       empcolor="#0099e5"
       empopacity="0.30196078"
       color="#0099e5"
       opacity="0.14901961"
       empspacing="5"
       dotted="false"
       gridanglex="30"
       gridanglez="30"
       visible="true" />
  </sodipodi:namedview>
  <path
     d="M 12,2 C 6.48,2 2,6.48 2,12 2,17.52 6.48,22 12,22 17.52,22 22,17.52 22,12 22,6.48 17.52,2 12,2 Z m 0,18 C 7.58,20 4,16.42 4,12 4,7.58 7.58,4 12,4 c 4.42,0 8,3.58 8,8 0,4.42 -3.58,8 -8,8 z"
     id="path1"
     style="display:none;stroke:#000000;stroke-width:2;stroke-linejoin:round;stroke-dasharray:none;stroke-opacity:1"
     sodipodi:nodetypes="ssssssssss" />
  <path
     d="m 12,3.8181819 c -4.5163635,0 -8.1818181,3.6654546 -8.1818181,8.1818181 0,4.516364 3.6654546,8.181818 8.1818181,8.181818 4.516364,0 8.181818,-3.665454 8.181818,-8.181818 C 20.181818,7.4836365 16.516364,3.8181819 12,3.8181819 Z M 12,18.545455 C 8.3836365,18.545455 5.4545456,15.616364 5.4545456,12 5.4545456,8.3836365 8.3836365,5.4545456 12,5.4545456 c 3.616364,0 6.545455,2.9290909 6.545455,6.5454544 0,3.616364 -2.929091,6.545455 -6.545455,6.545455 z"
     id="path2"
     style="display:inline;stroke:#1a1a1a;stroke-width:1.63636;stroke-linejoin:round;stroke-dasharray:none;stroke-opacity:1"
     sodipodi:nodetypes="ssssssssss" />
  <path
     d="m 12,3.8181787 c -4.5163653,0 -8.1818212,3.6654559 -8.1818212,8.1818203 0,4.516366 3.6654559,8.181822 8.1818212,8.181822 4.516366,0 8.181821,-3.665456 8.181821,-8.181822 0,-4.5163643 -3.665455,-8.1818202 -8.181821,-8.1818203 z"
     id="path1-6"
     style="display:none;stroke:#000000;stroke-width:1.63636;stroke-linejoin:round;stroke-dasharray:none;stroke-opacity:1"
     sodipodi:nodetypes="sssss" />
  <path
     id="path1-2"
     style="display:inline;stroke-width:0.9"
     d="m 12,4.8 c -4.5,0 -7.2,3.0712499 -7.2,7.2 0,4.15125 3.15,7.2 7.2,7.2 4.05,0 7.2,-3.15 7.2,-7.2 0,-4.1287501 -2.7,-7.2 -7.2,-7.2 z m 0,1.8 c 3.052653,0 5.4,2.4095751 5.4,5.4 0,3.060057 -2.339942,5.4 -5.4,5.4 C 8.9399433,17.4 6.6,15.060057 6.6,12 6.6,8.9399431 8.9399433,6.6 12,6.6 Z m 0,0 c -3.15,0 -5.4,2.25 -5.4,5.4 0,3.15 2.25,5.4 5.4,5.4 3.15,0 5.4,-2.25 5.4,-5.4 C 17.39694,9.0629682 15.15,6.6 12,6.6 Z m -5,3.9 h 10 v 3 H 7 Z"
     sodipodi:nodetypes="sssssssssscssccccccc" />
</svg>
