<?xml version="1.0" encoding="UTF-8" standalone="no"?>
<svg
   width="16"
   height="16"
   viewBox="0 0 16 16"
   version="1.1"
   id="svg1"
   sodipodi:docname="small-radio-mixed-symbolic-filled.svg"
   inkscape:version="1.3.2 (091e20ef0f, 2023-11-25, custom)"
   xmlns:inkscape="http://www.inkscape.org/namespaces/inkscape"
   xmlns:sodipodi="http://sodipodi.sourceforge.net/DTD/sodipodi-0.dtd"
   xmlns="http://www.w3.org/2000/svg"
   xmlns:svg="http://www.w3.org/2000/svg">
  <defs
     id="defs1" />
  <sodipodi:namedview
     id="namedview1"
     pagecolor="#ffffff"
     bordercolor="#666666"
     borderopacity="1.0"
     inkscape:showpageshadow="2"
     inkscape:pageopacity="0.0"
     inkscape:pagecheckerboard="0"
     inkscape:deskcolor="#d1d1d1"
     inkscape:zoom="45.9375"
     inkscape:cx="6.9442177"
     inkscape:cy="7.8911565"
     inkscape:current-layer="svg1"
     showgrid="true">
    <inkscape:grid
       id="grid3"
       units="px"
       originx="0"
       originy="0"
       spacingx="0.5"
       spacingy="0.5"
       empcolor="#0099e5"
       empopacity="0.30196078"
       color="#0099e5"
       opacity="0.14901961"
       empspacing="5"
       dotted="false"
       gridanglex="30"
       gridanglez="30"
       visible="true" />
  </sodipodi:namedview>
  <path
     id="path1"
     style="display:inline"
     d="M 8,0 C 3.581722,0 0,3.581722 0,8 c 0,4.418278 3.581722,8 8,8 4.418278,0 8,-3.581722 8,-8 C 16,3.581722 12.418278,0 8,0 Z m 0,2 c 3.391837,0 6,2.6773057 6,6 0,3.400063 -2.599936,6 -6,6 C 4.5999372,14 2,11.400063 2,8 2,4.5999368 4.5999371,2 8,2 Z M 8,2 C 4.5,2 2,4.5 2,8 c 0,3.5 2.5,6 6,6 3.5,0 6,-2.5 6,-6 C 13.996566,4.7366313 11.5,2 8,2 Z M 4,7 h 8 V 9 H 4 Z"
     sodipodi:nodetypes="sssssssssscssccccccc" />
  <path
     d="M 8,0 A 8,8 0 0 0 0,8 8,8 0 0 0 8,16 8,8 0 0 0 16,8 8,8 0 0 0 8,0 Z M 8,2 A 6,6 0 0 1 14,8 6,6 0 0 1 8,14 6,6 0 0 1 2,8 6,6 0 0 1 8,2 Z M 4,7 v 2 h 8 V 7 Z"
     id="path3"
     style="display:none" />
</svg>
